<?xml version="1.0" encoding="UTF-8"?>
<svg id="Layer_2" data-name="Layer 2" xmlns="http://www.w3.org/2000/svg" viewBox="0 0 76.04 76.04">
  <defs>
    <style>
      .cls-1 {
        stroke: #fff;
      }

      .cls-1, .cls-2 {
        fill: none;
        stroke-miterlimit: 10;
      }

      .cls-2 {
        stroke: #ededed;
      }

      .cls-3 {
        fill: #fff;
        stroke-width: 0px;
      }
    </style>
  </defs>
  <g id="Layer_1-2" data-name="Layer 1">
    <g>
      <g>
        <path class="cls-3" d="M17.02,60.12v-10.99h4.04v6.95h44.36v4.04H17.02Z"/>
        <path class="cls-1" d="M25.19,13.36c1.04.5,1.98,1.05,2.99,1.42.96.34,1.18.89,1.18,1.88-.04,11.53-.01,23.07,0,34.6,0,.21,0,.42,0,.66h-4.16V13.36Z"/>
        <path class="cls-3" d="M17.03,9.56c1.34.64,2.6,1.22,3.84,1.85.13.07.18.39.18.6.01,4.95.02,9.9.02,14.85,0,5.65,0,11.3,0,16.95,0,.23,0,.46,0,.72h-4.04V9.56Z"/>
      </g>
      <rect class="cls-2" x=".5" y=".5" width="75.04" height="75.04" rx="15.45" ry="15.45"/>
    </g>
  </g>
</svg>