<?xml version="1.0" encoding="UTF-8"?>
<svg id="Layer_1" xmlns="http://www.w3.org/2000/svg" version="1.1" viewBox="0 0 490 216.2">
  <!-- Generator: Adobe Illustrator 29.3.0, SVG Export Plug-In . SVG Version: 2.1.0 Build 146)  -->
  <defs>
    <style>
      .st0 {
        fill: none;
        stroke: #fff;
      }

      .st0, .st1 {
        stroke-miterlimit: 10;
      }

      .st2, .st3 {
        isolation: isolate;
      }

      .st4, .st3 {
        fill: #fff;
      }

      .st3 {
        font-family: Helvetica, Helvetica;
        font-size: 10.4px;
        letter-spacing: .5em;
      }

      .st1 {
        fill: #e05353;
        stroke: #000;
      }

      .st5 {
        display: none;
      }
    </style>
  </defs>
  <g id="Layer_2" class="st5">
    <rect class="st1" width="490" height="216.2"/>
  </g>
  <path class="st4" d="M143.4,84.5h8.3v18.2h11.1v6.4h-19.4v-24.6Z"/>
  <path class="st4" d="M182.3,104.8h-9.4l-1.6,4.3h-8.4l10.8-24.6h8.2l10.8,24.6h-8.6l-1.6-4.3h0ZM180,98.8l-2.4-6.2-2.4,6.2h4.8Z"/>
  <path class="st4" d="M218.1,84.5v24.6h-6.8l-9.4-11.2v11.2h-8.1v-24.6h6.8l9.4,11.2v-11.2h8.1Z"/>
  <path class="st4" d="M238.4,96.1h7.2v10.4c-3,2-7.1,3.1-10.7,3.1-7.9,0-13.8-5.3-13.8-12.9s5.8-12.9,13.9-12.9,8.8,1.7,11.3,4.8l-5.3,4.7c-1.6-1.8-3.3-2.7-5.5-2.7-3.7,0-6,2.4-6,6.2s2.3,6.2,5.9,6.2,2-.2,3-.6v-6.2h0Z"/>
  <path class="st4" d="M248.9,98v-13.6h8.3v13.3c0,3.8,1.4,5.2,3.8,5.2s3.8-1.4,3.8-5.2v-13.3h8.2v13.6c0,7.4-4.4,11.7-12,11.7s-12-4.3-12-11.7h0Z"/>
  <path class="st4" d="M293,104.8h-9.4l-1.6,4.3h-8.4l10.8-24.6h8.2l10.8,24.6h-8.6l-1.6-4.3h0ZM290.7,98.8l-2.4-6.2-2.4,6.2h4.8Z"/>
  <path class="st4" d="M320.5,96.1h7.2v10.4c-3,2-7.1,3.1-10.7,3.1-8,0-13.8-5.3-13.8-12.9s5.8-12.9,13.9-12.9,8.8,1.7,11.3,4.8l-5.3,4.7c-1.5-1.8-3.3-2.7-5.5-2.7-3.7,0-6,2.4-6,6.2s2.3,6.2,5.9,6.2,2-.2,3-.6v-6.2h0Z"/>
  <path class="st4" d="M351.7,102.8v6.3h-20.5v-24.6h20v6.3h-11.9v2.9h10.4v6h-10.4v3.2h12.3Z"/>
  <path class="st4" d="M353.4,107.1l2.7-6.1c2.3,1.4,5.4,2.2,8.1,2.2s3.2-.5,3.2-1.3c0-3.1-13.6-.6-13.6-9.8s3.8-8.3,11.5-8.3,6.7.7,9.3,2.2l-2.5,6c-2.4-1.2-4.7-1.8-6.9-1.8s-3.2.7-3.2,1.6c0,2.9,13.6.5,13.6,9.6s-3.8,8.3-11.5,8.3-8.3-1-10.7-2.5h0Z"/>
  <path class="st4" d="M143.4,119.9h8.3v18.2h11.1v6.4h-19.4v-24.6Z"/>
  <path class="st4" d="M165.1,119.9h8.3v24.6h-8.3v-24.6Z"/>
  <path class="st4" d="M201.7,119.9v24.6h-6.8l-9.4-11.2v11.2h-8.1v-24.6h6.8l9.4,11.2v-11.2s8.1,0,8.1,0Z"/>
  <path class="st4" d="M222,131.6h7.2v10.4c-3,2-7.1,3.1-10.7,3.1-7.9,0-13.8-5.3-13.8-12.9s5.8-12.9,13.9-12.9,8.8,1.7,11.3,4.8l-5.3,4.7c-1.6-1.8-3.3-2.7-5.5-2.7-3.7,0-6,2.4-6,6.2s2.3,6.2,5.9,6.2,2-.2,3-.6v-6.2h0Z"/>
  <path class="st4" d="M232.6,133.4v-13.6h8.3v13.3c0,3.8,1.4,5.2,3.8,5.2s3.8-1.4,3.8-5.2v-13.3h8.2v13.6c0,7.4-4.4,11.6-12,11.6s-12-4.3-12-11.6h0Z"/>
  <path class="st4" d="M270.8,142.6l2.7-6.1c2.3,1.4,5.4,2.2,8.1,2.2s3.2-.5,3.2-1.3c0-3.1-13.6-.6-13.6-9.8s3.8-8.3,11.5-8.3,6.7.7,9.3,2.2l-2.5,6c-2.4-1.2-4.7-1.8-6.9-1.8s-3.2.7-3.2,1.6c0,2.9,13.6.5,13.6,9.6s-3.8,8.3-11.5,8.3-8.3-1-10.7-2.5h0Z"/>
  <path class="st4" d="M355.8,142.6l2.7-6.1c2.3,1.4,5.4,2.2,8.1,2.2s3.2-.5,3.2-1.3c0-3.1-13.6-.6-13.6-9.8s3.8-8.3,11.5-8.3,6.7.7,9.3,2.2l-2.5,6c-2.4-1.2-4.7-1.8-6.9-1.8s-3.2.7-3.2,1.6c0,2.9,13.6.5,13.6,9.6s-3.8,8.3-11.5,8.3-8.3-1-10.7-2.5h0Z"/>
  <path class="st4" d="M300.5,126.3h-7.2v-6.4h22.7v6.4h-7.2v18.2h-8.3v-18.2h0Z"/>
  <path class="st4" d="M318.2,119.9h8.3v24.6h-8.3v-24.6Z"/>
  <path class="st4" d="M259.5,119.9h8.3v24.6h-8.3v-24.6Z"/>
  <path class="st4" d="M329.5,132.2c0-7.6,5.8-12.9,13.7-12.9s8.6,1.8,11,4.9l-5.2,4.7c-1.4-1.8-3.2-2.9-5.4-2.9-3.5,0-5.8,2.4-5.8,6.2s2.3,6.2,5.8,6.2,3.9-1.1,5.4-2.9l5.2,4.7c-2.4,3.2-6.2,4.9-11,4.9-7.9,0-13.7-5.3-13.7-12.9h0Z"/>
  <g class="st2">
    <text class="st3" transform="translate(377.9 108.1)"><tspan x="0" y="0">&amp;</tspan></text>
  </g>
  <g>
    <path class="st4" d="M106.2,163.5v-25.8h9.5v16.3h104.3v9.5h-113.8,0Z"/>
    <path class="st0" d="M125.4,53.5c2.4,1.2,4.6,2.5,7,3.3,2.3.8,2.8,2.1,2.8,4.4,0,27.1,0,54.2,0,81.3v1.6h-9.8s0-90.6,0-90.6Z"/>
    <path class="st4" d="M106.2,44.6c3.2,1.5,6.1,2.9,9,4.3.3.2.4.9.4,1.4,0,11.6,0,23.3,0,34.9,0,13.3,0,26.6,0,39.8v1.7h-9.5V44.6h0Z"/>
  </g>
</svg>