<?xml version="1.0" encoding="UTF-8"?>
<svg id="Layer_1" data-name="Layer 1" xmlns="http://www.w3.org/2000/svg" version="1.1" viewBox="0 0 579.41 434.56">
  <defs>
    <style>
      .cls-1 {
        stroke: #fff;
      }

      .cls-1, .cls-2 {
        fill: none;
        stroke-miterlimit: 10;
      }

      .cls-3 {
        fill: #000;
      }

      .cls-3, .cls-4, .cls-5 {
        stroke-width: 0px;
      }

      .cls-2 {
        stroke: #454545;
      }

      .cls-4 {
        fill: #fff;
      }

      .cls-5 {
        fill: #445aaa;
      }
    </style>
  </defs>
  <rect class="cls-5" x="-45.83" y="-42.99" width="671.43" height="537.56" rx="4.81" ry="4.81"/>
  <g>
    <path class="cls-1" d="M125.38,223.88c8.17,0,15.91-.03,23.65.01,4.73.03,9.49-.08,14.2.3,10.91.89,19.31,10.44,19.03,21.34-.29,11.15-9.04,20.22-20.16,20.55-7.05.21-14.13.23-21.18-.06-10.03-.41-18.01-7.6-19.55-17.59-.64-4.15-.8-8.4-.82-12.6-.08-20.83-.03-41.66-.05-62.5,0-7.19-3.33-12.41-9.85-15.3-6.36-2.81-12.34-1.59-17.57,2.86-3.91,3.34-5.42,7.77-5.41,12.87.04,22.21,0,44.42.03,66.63,0,2.75-.07,5.54.32,8.24.97,6.67,3.82,12.41,9.94,17.02-4.58-1.16-7.46-3.5-9.87-6.48-3.73-4.62-5.15-10.01-5.14-15.87.02-23.41-.03-46.83.02-70.24.03-11.79,9.3-21.13,20.86-21.19,11.93-.06,21.42,9.1,21.52,21.11.13,15.84.03,31.68.04,47.52,0,1.01,0,2.03,0,3.37ZM131.19,256.84c2.59,3.13,5.69,4.52,9.97,4.56,6.63.06,13.27.05,19.9.02,9.21-.04,16.42-7.26,16.42-16.39,0-9.05-7.33-16.28-16.54-16.29-10.94-.01-21.88,0-32.83.02-.84,0-1.67.08-2.58.12v4.5c1.16,0,2.17,0,3.18,0,10.86-.02,21.71-.13,32.57-.02,6.47.07,11.64,5.51,11.62,11.82-.02,6.23-5.06,11.37-11.53,11.6-3.53.13-7.06.05-10.6.06-6.35,0-12.71,0-19.58,0ZM126.59,247.45c1.21,5.66.86,4.63,5.27,4.66,9.3.05,18.59.02,27.89,0,1.02,0,2.09,0,3.07-.26,3.37-.88,5.5-4.12,5.14-7.66-.33-3.35-3.25-6.01-6.92-6.03-10.67-.07-21.35-.06-32.02-.07-1.09,0-2.18,0-3.24,0q-.36,4.63,3.86,4.63c10.07,0,20.14.02,30.21,0,1.73,0,3.3.36,3.27,2.37-.03,1.95-1.57,2.4-3.31,2.37-3.44-.05-6.89-.01-10.33-.01-7.57,0-15.13,0-22.87,0Z"/>
    <path class="cls-4" d="M125.31,265.82c-7.43-2.5-14.17-12.02-14.18-21.56-.04-22.73-.01-45.45-.01-68.18,0-.86.01-1.72,0-2.58-.08-4.35-3.15-7.54-7.18-7.46-3.89.08-6.84,3.26-6.84,7.56-.02,23.85,0,47.69,0,71.54,0,.94.07,1.89.2,2.83.97,7.05,4.21,12.83,9.62,17.61-1.34-.68-2.79-1.2-4-2.06-6.76-4.76-10.57-11.14-10.56-19.58.02-23.33-.01-46.66.02-69.99,0-7.38,4.94-12.66,11.7-12.72,6.71-.05,11.82,5.23,11.84,12.61.07,23.33.07,46.66.02,69.99-.01,6.82,1.98,12.85,6.4,18.07,1.06,1.25,1.99,2.61,2.98,3.93Z"/>
    <path class="cls-4" d="M116.68,265.43c-4.45-1.15-7.64-4.1-10.34-7.55-3-3.82-4.57-8.25-4.58-13.16,0-23.5,0-47.01,0-70.51,0-.43-.17-1.02.05-1.26.72-.81,1.51-1.95,2.4-2.07.64-.09,1.7,1.12,2.16,1.97.37.67.13,1.68.13,2.54,0,22.3.06,44.6-.02,66.89-.03,9.27,2.67,17.21,10.21,23.15Z"/>
  </g>
  <path class="cls-2" d="M106.76,145.66"/>
  <g>
    <path class="cls-3" d="M674.48-24.85h2.77V-1.3h6.55l-.31,2.5h-9.02v-26.05Z"/>
    <path class="cls-3" d="M695.38-2.24c0,1.35.02,2.85.08,3.44h-2.57c-.1-.48-.19-1.28-.21-1.61-.64,1.47-1.86,1.93-3.25,1.93-2.87,0-4.01-2.55-4.01-5.61v-.35c0-4.49,2.79-6.08,6.32-6.08h.86v-3.14c0-1.8-.3-2.94-1.86-2.94s-1.96,1.18-1.96,2.73v.53h-2.74v-.49c0-2.77,1.09-5.13,4.79-5.13,3.46,0,4.54,2.17,4.54,5.1V-2.24ZM692.66-8.32h-.97c-2.25,0-3.59.94-3.59,3.81v.33c0,1.77.55,3.2,2.1,3.2,1.83,0,2.45-1.46,2.45-4.43v-2.91Z"/>
    <path class="cls-3" d="M699.07-12.61c0-3.99,0-5.06-.04-6.04h2.64c.06.45.11,1.14.11,1.99.58-1.45,1.77-2.3,3.64-2.3,2.17,0,3.91,1.24,3.91,4.89V1.2h-2.77v-14.74c0-1.92-.64-2.89-2.08-2.89-1.66,0-2.64.83-2.64,4.58V1.2h-2.77v-13.81Z"/>
    <path class="cls-3" d="M722.76.79c0,4.03-.45,7.42-5.42,7.42-4.14,0-4.92-2.78-4.92-4.94v-.1h2.79v.12c0,.98.37,2.56,2.27,2.56,2.05,0,2.5-1.53,2.5-4.39V-1.08c-.53,1.35-1.6,2.07-3.36,2.07-3.03,0-4.2-2.21-4.2-6.08v-7.97c0-3.49,1.51-5.9,4.61-5.9,2.04,0,2.96,1.04,3.25,2.04,0-.56.1-1.31.15-1.73h2.4c-.04,1.1-.08,2.88-.08,5.23V.79ZM715.22-12.92v7.6c0,2.55.66,3.8,2.17,3.8,2.26,0,2.62-2.26,2.62-4.94v-5.86c0-2.28-.24-4.11-2.36-4.11-1.7,0-2.43,1.26-2.43,3.51Z"/>
    <path class="cls-3" d="M736.46-4.17c0,2.57,0,4.42.04,5.36h-2.64c-.06-.37-.11-1.37-.11-2.06-.61,1.8-1.87,2.38-3.57,2.38s-3.87-.63-3.87-5.07v-15.1h2.77V-4.29c0,2.35.63,3.28,2.11,3.28,1.39,0,2.5-.84,2.5-4.63v-13.02h2.77V-4.17Z"/>
    <path class="cls-3" d="M749.2-2.24c0,1.35.02,2.85.08,3.44h-2.57c-.1-.48-.19-1.28-.21-1.61-.64,1.47-1.86,1.93-3.25,1.93-2.87,0-4.01-2.55-4.01-5.61v-.35c0-4.49,2.79-6.08,6.33-6.08h.86v-3.14c0-1.8-.3-2.94-1.86-2.94s-1.96,1.18-1.96,2.73v.53h-2.74v-.49c0-2.77,1.09-5.13,4.79-5.13,3.46,0,4.54,2.17,4.54,5.1V-2.24ZM746.48-8.32h-.97c-2.25,0-3.59.94-3.59,3.81v.33c0,1.77.55,3.2,2.1,3.2,1.83,0,2.45-1.46,2.45-4.43v-2.91Z"/>
    <path class="cls-3" d="M762.65.79c0,4.03-.45,7.42-5.42,7.42-4.14,0-4.92-2.78-4.92-4.94v-.1h2.79v.12c0,.98.37,2.56,2.27,2.56,2.05,0,2.5-1.53,2.5-4.39V-1.08c-.53,1.35-1.6,2.07-3.36,2.07-3.03,0-4.2-2.21-4.2-6.08v-7.97c0-3.49,1.51-5.9,4.61-5.9,2.04,0,2.96,1.04,3.25,2.04,0-.56.1-1.31.15-1.73h2.4c-.04,1.1-.08,2.88-.08,5.23V.79ZM755.12-12.92v7.6c0,2.55.66,3.8,2.17,3.8,2.26,0,2.62-2.26,2.62-4.94v-5.86c0-2.28-.24-4.11-2.36-4.11-1.7,0-2.43,1.26-2.43,3.51Z"/>
    <path class="cls-3" d="M768.46-8.16v3.25c0,1.97.39,4.03,2.35,4.03s2.23-1.53,2.23-3.43v-.16h2.72v.14c0,2.3-.54,5.84-4.94,5.84-4.14,0-5.08-2.72-5.08-6.75v-7.4c0-3.01,1.05-6.33,5.13-6.33,3.83,0,4.95,2.84,4.95,6.34v4.47h-7.36ZM773.13-10.42v-2.48c0-1.85-.3-3.67-2.29-3.67-1.88,0-2.37,1.55-2.37,3.69v2.46h4.66Z"/>
    <path class="cls-3" d="M792.03-8.52l-2.41,6.31c-.94,2.42-1.97,3.58-3.71,3.58-2.26,0-3.08-1.8-3.08-4.23,0-2.59.91-3.52,2.86-5.18,1.46-1.24,1.84-1.95,1.84-3.63,0-1.15-.18-1.94-1.09-1.94-.82,0-1.12.84-1.12,1.96,0,1.5.1,2.08.9,3.46l5.57,9.38h-1.91l-4.89-8.19c-.99-1.65-1.28-2.59-1.28-4.52,0-2.13.89-3.52,2.73-3.52s2.66,1.21,2.66,3.3c0,2.27-.65,3.2-2.65,4.85-1.58,1.32-1.95,2.02-1.95,3.89,0,1.77.53,2.66,1.59,2.66.98,0,1.44-.66,2.06-2.29l2.22-5.91h1.64Z"/>
    <path class="cls-3" d="M799.55-24.85h2.77V-1.3h6.55l-.31,2.5h-9.02v-26.05Z"/>
    <path class="cls-3" d="M811.27-18.66h2.77V1.2h-2.77v-19.85ZM811.28-26.01h2.77v4.03h-2.77v-4.03Z"/>
    <path class="cls-3" d="M817.7-12.61c0-3.99,0-5.06-.04-6.04h2.64c.06.45.11,1.14.11,1.99.59-1.45,1.77-2.3,3.64-2.3,2.17,0,3.91,1.24,3.91,4.89V1.2h-2.77v-14.74c0-1.92-.64-2.89-2.08-2.89-1.66,0-2.64.83-2.64,4.58V1.2h-2.77v-13.81Z"/>
    <path class="cls-3" d="M841.39.79c0,4.03-.45,7.42-5.42,7.42-4.14,0-4.92-2.78-4.92-4.94v-.1h2.79v.12c0,.98.37,2.56,2.27,2.56,2.05,0,2.5-1.53,2.5-4.39V-1.08c-.53,1.35-1.6,2.07-3.36,2.07-3.03,0-4.2-2.21-4.2-6.08v-7.97c0-3.49,1.51-5.9,4.61-5.9,2.04,0,2.96,1.04,3.25,2.04,0-.56.1-1.31.15-1.73h2.4c-.04,1.1-.08,2.88-.08,5.23V.79ZM833.85-12.92v7.6c0,2.55.66,3.8,2.17,3.8,2.26,0,2.62-2.26,2.62-4.94v-5.86c0-2.28-.24-4.11-2.36-4.11-1.7,0-2.43,1.26-2.43,3.51Z"/>
    <path class="cls-3" d="M855.09-4.17c0,2.57,0,4.42.04,5.36h-2.64c-.06-.37-.11-1.37-.11-2.06-.61,1.8-1.86,2.38-3.57,2.38s-3.86-.63-3.86-5.07v-15.1h2.77V-4.29c0,2.35.63,3.28,2.11,3.28,1.39,0,2.5-.84,2.5-4.63v-13.02h2.77V-4.17Z"/>
    <path class="cls-3" d="M860.23-4.7v.87c0,1.93.77,2.95,2.18,2.95,1.51,0,2.11-.95,2.11-2.77,0-1.92-.57-2.84-2.83-4.33-2.66-1.75-3.9-3.15-3.9-5.9,0-2.93,1.42-5.08,4.67-5.08,3.52,0,4.6,2.24,4.6,5.22v.91h-2.7v-1.1c0-1.69-.49-2.65-1.93-2.65-1.32,0-1.87.92-1.87,2.45s.48,2.23,2.46,3.55c2.92,1.91,4.3,3.29,4.3,6.57,0,3.6-1.62,5.52-5.03,5.52-3.89,0-4.88-2.58-4.88-5.32v-.9h2.81Z"/>
    <path class="cls-3" d="M868.44-18.66h2.28v-4.88h2.75v4.88h2.8v2.46h-2.8V-2.86c0,1.02.18,2,1.43,2,.37,0,.96-.04,1.25-.12V1.17c-.6.24-1.48.3-2.15.3-1.93,0-3.28-.8-3.28-3.83v-13.84h-2.28v-2.46Z"/>
    <path class="cls-3" d="M878.43-18.66h2.77V1.2h-2.77v-19.85ZM878.44-26.01h2.77v4.03h-2.77v-4.03Z"/>
    <path class="cls-3" d="M894.05-5.07v.27c0,3.43-.87,6.31-4.94,6.31s-4.82-2.68-4.82-6.7v-7.71c0-3.36,1.22-6.07,5-6.07,4.06,0,4.76,2.98,4.76,5.63v.8h-2.76v-.68c0-1.8-.3-3.36-2.06-3.36-1.54,0-2.15,1.16-2.15,3.51V-4.56c0,1.8.34,3.68,2.1,3.68,1.57,0,2.11-1.06,2.11-3.57v-.63h2.76Z"/>
    <path class="cls-3" d="M898.83-4.7v.87c0,1.93.77,2.95,2.18,2.95,1.51,0,2.11-.95,2.11-2.77,0-1.92-.57-2.84-2.83-4.33-2.66-1.75-3.9-3.15-3.9-5.9,0-2.93,1.42-5.08,4.67-5.08,3.52,0,4.6,2.24,4.6,5.22v.91h-2.7v-1.1c0-1.69-.49-2.65-1.92-2.65-1.32,0-1.87.92-1.87,2.45s.48,2.23,2.46,3.55c2.92,1.91,4.3,3.29,4.3,6.57,0,3.6-1.62,5.52-5.04,5.52-3.89,0-4.88-2.58-4.88-5.32v-.9h2.81Z"/>
    <path class="cls-3" d="M675.88,40.66v1.51c0,2.45.85,3.77,2.67,3.77s2.6-1.35,2.6-4.21c0-3.05-.67-4.23-3.41-6.37-2.79-2.18-4.2-3.5-4.2-7.34,0-3.3.99-6.47,5.08-6.45,3.88.02,4.9,2.6,4.9,5.91v1.21h-2.76v-1.13c0-2.16-.42-3.56-2.21-3.56s-2.25,1.57-2.25,3.61c0,2.42.48,3.34,2.87,5.15,3.62,2.73,4.76,4.26,4.76,8.58,0,3.66-1.05,7-5.44,7s-5.4-2.75-5.4-6.19v-1.5h2.77Z"/>
    <path class="cls-3" d="M689.33,38.64v3.25c0,1.97.39,4.03,2.35,4.03s2.23-1.53,2.23-3.43v-.16h2.72v.14c0,2.3-.54,5.84-4.94,5.84-4.14,0-5.08-2.72-5.08-6.75v-7.4c0-3.01,1.05-6.33,5.13-6.33,3.83,0,4.95,2.84,4.95,6.34v4.47h-7.36ZM694,36.38v-2.48c0-1.85-.3-3.67-2.29-3.67-1.88,0-2.37,1.55-2.37,3.69v2.46h4.66Z"/>
    <path class="cls-3" d="M699.62,33.86c0-3.6,0-4.76-.04-5.72h2.64c.1.58.1,1.2.11,1.86.59-1.34,1.69-2.17,3.4-2.17,1.53,0,2.64.63,3.08,2.29.61-1.22,1.65-2.29,3.66-2.29s3.74.87,3.74,4.7v15.47h-2.77v-14.9c0-1.56-.3-2.73-1.85-2.73-1.86,0-2.28,1.66-2.28,3.8v13.83h-2.79v-14.74c0-2.14-.55-2.89-1.89-2.89-1.81,0-2.24,1.7-2.24,3.96v13.67h-2.77v-14.14Z"/>
    <path class="cls-3" d="M719.86,28.14h2.77v19.85h-2.77v-19.85ZM719.88,20.79h2.77v4.03h-2.77v-4.03Z"/>
    <path class="cls-3" d="M726.29,34.19c0-3.99,0-5.06-.04-6.04h2.64c.06.45.11,1.14.11,1.99.58-1.45,1.77-2.3,3.64-2.3,2.17,0,3.91,1.24,3.91,4.89v15.28h-2.77v-14.74c0-1.92-.65-2.89-2.08-2.89-1.66,0-2.64.83-2.64,4.58v13.05h-2.77v-13.81Z"/>
    <path class="cls-3" d="M749.2,44.56c0,1.35.02,2.85.08,3.44h-2.57c-.1-.48-.19-1.28-.21-1.61-.64,1.47-1.86,1.93-3.25,1.93-2.87,0-4.01-2.55-4.01-5.61v-.35c0-4.49,2.79-6.08,6.33-6.08h.86v-3.14c0-1.8-.3-2.94-1.86-2.94s-1.96,1.18-1.96,2.73v.53h-2.74v-.49c0-2.77,1.09-5.13,4.79-5.13,3.46,0,4.54,2.17,4.54,5.1v11.64ZM746.48,38.48h-.97c-2.25,0-3.59.94-3.59,3.81v.33c0,1.77.55,3.2,2.1,3.2,1.83,0,2.45-1.46,2.45-4.43v-2.91Z"/>
    <path class="cls-3" d="M752.89,34.9c0-3.2.02-5-.04-6.76h2.64c.04.52.1,1.77.1,3.1.73-2.45,2.44-3.33,4.18-3.37v3.42c-2.45.02-4.11,1.44-4.11,5.02v11.68h-2.77v-13.1Z"/>
    <path class="cls-3" d="M768.54,40.66v1.51c0,2.45.85,3.77,2.67,3.77s2.6-1.35,2.6-4.21c0-3.05-.67-4.23-3.42-6.37-2.79-2.18-4.2-3.5-4.2-7.34,0-3.3.99-6.47,5.08-6.45,3.88.02,4.9,2.6,4.9,5.91v1.21h-2.75v-1.13c0-2.16-.42-3.56-2.21-3.56s-2.25,1.57-2.25,3.61c0,2.42.48,3.34,2.87,5.15,3.62,2.73,4.76,4.26,4.76,8.58,0,3.66-1.04,7-5.44,7s-5.4-2.75-5.4-6.19v-1.5h2.77Z"/>
    <path class="cls-3" d="M781.99,38.64v3.25c0,1.97.39,4.03,2.35,4.03s2.23-1.53,2.23-3.43v-.16h2.72v.14c0,2.3-.54,5.84-4.94,5.84-4.14,0-5.08-2.72-5.08-6.75v-7.4c0-3.01,1.05-6.33,5.13-6.33,3.83,0,4.95,2.84,4.95,6.34v4.47h-7.36ZM786.66,36.38v-2.48c0-1.85-.3-3.67-2.29-3.67-1.88,0-2.37,1.55-2.37,3.69v2.46h4.66Z"/>
    <path class="cls-3" d="M792.28,34.9c0-3.2.02-5-.04-6.76h2.64c.04.52.1,1.77.1,3.1.73-2.45,2.44-3.33,4.18-3.37v3.42c-2.45.02-4.11,1.44-4.11,5.02v11.68h-2.77v-13.1Z"/>
    <path class="cls-3" d="M801.17,28.14h2.77v19.85h-2.77v-19.85ZM801.19,20.79h2.77v4.03h-2.77v-4.03Z"/>
    <path class="cls-3" d="M809.76,38.64v3.25c0,1.97.39,4.03,2.35,4.03s2.23-1.53,2.23-3.43v-.16h2.72v.14c0,2.3-.54,5.84-4.94,5.84-4.14,0-5.08-2.72-5.08-6.75v-7.4c0-3.01,1.05-6.33,5.13-6.33,3.83,0,4.95,2.84,4.95,6.34v4.47h-7.36ZM814.43,36.38v-2.48c0-1.85-.3-3.67-2.29-3.67-1.88,0-2.37,1.55-2.37,3.69v2.46h4.66Z"/>
    <path class="cls-3" d="M822.09,42.1v.87c0,1.93.77,2.95,2.18,2.95,1.51,0,2.11-.95,2.11-2.77,0-1.92-.57-2.84-2.83-4.33-2.66-1.75-3.9-3.15-3.9-5.9,0-2.93,1.42-5.08,4.67-5.08,3.52,0,4.6,2.24,4.6,5.22v.91h-2.7v-1.1c0-1.69-.49-2.65-1.93-2.65-1.32,0-1.87.92-1.87,2.45s.48,2.23,2.46,3.55c2.92,1.91,4.3,3.29,4.3,6.57,0,3.6-1.62,5.52-5.03,5.52-3.89,0-4.88-2.58-4.88-5.32v-.9h2.81Z"/>
  </g>
  <g>
    <path class="cls-4" d="M203.29,204.58v-1.3h9.09v1.3l-4.22.49h-.65l-4.22-.49ZM207.84,223.24v1.79h-4.54v-1.3l4.22-.49h.32ZM206.28,203.28h3.12c-.1,3.34-.1,6.72-.1,10.06v2.27c0,2.76,0,6.13.1,9.41h-3.12c.1-3.34.1-6.72.1-10.06v-1.62c0-3.41,0-6.78-.1-10.06ZM219.75,218.92l-.32,6.1h-11.59v-1.62h10.45l-1.79,1.62,1.3-6.1h1.95Z"/>
    <path class="cls-4" d="M228.02,216.52c1.36-.49,3.41-1.07,5.03-1.36v1.17c-1.46.29-3.38.91-4.35,1.3-2.92,1.14-3.25,2.37-3.25,3.31,0,1.72,1.14,2.4,2.63,2.4,1.14,0,1.79-.42,3.83-1.88l.65-.49.45.68-.94.94c-1.95,1.95-3.05,2.86-5.03,2.86-2.37,0-4.35-1.36-4.35-4.06,0-1.82.97-3.28,5.32-4.87ZM231.76,222.04v-7.4c0-3.18-.91-3.96-3.05-3.96-.75,0-1.72.1-2.92.58l1.3-1.01-.84,2.79c-.29.94-.78,1.46-1.66,1.46s-1.4-.49-1.46-1.3c.62-2.47,3.02-3.99,6.26-3.99s4.97,1.53,4.97,5.61v6.88c0,1.46.45,1.98,1.2,1.98.55,0,.91-.29,1.27-.71l.65.71c-.78,1.23-1.66,1.66-2.76,1.66-1.78,0-2.95-1.3-2.95-3.31Z"/>
    <path class="cls-4" d="M241.27,225.03c.06-1.46.1-4.8.1-6.81v-1.53c0-1.79-.03-2.79-.1-4.09l-2.6-.29v-1.14l4.41-1.95.49.32.39,3.76v4.9c0,2.01.03,5.35.1,6.81h-2.79ZM246.33,223.89v1.14h-7.46v-1.14l3.57-.65h.65l3.25.65ZM253.83,215.22v2.99c0,2.08.03,5.35.1,6.81h-2.79c.07-1.46.1-4.74.1-6.81v-2.73c0-3.02-.78-3.99-2.73-3.99-1.62,0-2.95.65-4.8,2.24h-.68v-1.46h1.66l-1.4.58c1.53-2.04,4.12-3.63,6.43-3.63,2.79,0,4.12,1.72,4.12,6ZM252.95,223.24l3.25.65v1.14h-7.46v-1.14l3.57-.65h.65Z"/>
    <path class="cls-4" d="M270.67,228.01c0-1.46-.91-2.56-3.28-2.56h-3.83c-.55,0-1.14-.03-1.62-.1v-.1c-1.66-.36-2.5-1.2-2.5-2.56,0-1.14.75-2.37,2.95-4.28l.71.49c-.97,1.04-1.4,1.75-1.4,2.73,0,.88.36,1.46,1.88,1.46h4.28c3.47,0,5.13,1.53,5.13,4.15,0,2.79-2.66,5.58-7.92,5.58-4.67,0-6.72-1.62-6.72-3.96,0-1.59,1.01-2.79,4.28-4.19l.16.2c-1.3,1.27-1.82,2.24-1.82,3.5,0,2.14,1.66,2.99,4.19,2.99,3.57,0,5.49-1.49,5.49-3.34ZM264.96,209.22c3.31,0,5.78,1.75,5.78,5.32s-2.53,5.32-5.81,5.32-5.81-1.75-5.81-5.32,2.53-5.32,5.84-5.32ZM261.65,214.58c0,2.37,1.17,3.99,3.18,3.99,2.11,0,3.38-1.72,3.38-4.12s-1.17-3.93-3.21-3.93-3.34,1.69-3.34,4.06ZM272.68,209.22l.49.32v2.01h-4.77v-.88l4.28-1.46Z"/>
    <path class="cls-4" d="M279.57,219.28c0,2.89.84,3.89,2.63,3.89,1.66,0,3.34-.81,4.97-2.43h.68v1.66h-1.66l1.14-.49c-1.85,2.5-4.06,3.54-6.17,3.54-2.6,0-4.22-1.56-4.19-5.84l.1-8.57.68.62-3.02-.65v-1.14l4.67-.42.32.32-.16,4.54v4.97ZM287.29,225.29l-.46-3.8.1-10.45.68.62-3.02-.65v-1.14l4.61-.42.33.32-.1,4.54v9.7l-.78-.78,3.02.65v1.14l-4.38.26Z"/>
    <path class="cls-4" d="M299.62,216.52c1.36-.49,3.41-1.07,5.03-1.36v1.17c-1.46.29-3.38.91-4.35,1.3-2.92,1.14-3.25,2.37-3.25,3.31,0,1.72,1.14,2.4,2.63,2.4,1.14,0,1.79-.42,3.83-1.88l.65-.49.45.68-.94.94c-1.95,1.95-3.05,2.86-5.03,2.86-2.37,0-4.35-1.36-4.35-4.06,0-1.82.97-3.28,5.32-4.87ZM303.35,222.04v-7.4c0-3.18-.91-3.96-3.05-3.96-.75,0-1.72.1-2.92.58l1.3-1.01-.84,2.79c-.29.94-.78,1.46-1.66,1.46s-1.4-.49-1.46-1.3c.62-2.47,3.02-3.99,6.26-3.99s4.97,1.53,4.97,5.61v6.88c0,1.46.45,1.98,1.2,1.98.55,0,.91-.29,1.27-.71l.65.71c-.78,1.23-1.66,1.66-2.76,1.66-1.79,0-2.95-1.3-2.95-3.31Z"/>
    <path class="cls-4" d="M322.47,228.01c0-1.46-.91-2.56-3.28-2.56h-3.83c-.55,0-1.14-.03-1.62-.1v-.1c-1.66-.36-2.5-1.2-2.5-2.56,0-1.14.75-2.37,2.95-4.28l.71.49c-.97,1.04-1.4,1.75-1.4,2.73,0,.88.36,1.46,1.88,1.46h4.28c3.47,0,5.13,1.53,5.13,4.15,0,2.79-2.66,5.58-7.92,5.58-4.67,0-6.72-1.62-6.72-3.96,0-1.59,1.01-2.79,4.28-4.19l.16.2c-1.3,1.27-1.82,2.24-1.82,3.5,0,2.14,1.66,2.99,4.19,2.99,3.57,0,5.49-1.49,5.49-3.34ZM316.76,209.22c3.31,0,5.78,1.75,5.78,5.32s-2.53,5.32-5.81,5.32-5.81-1.75-5.81-5.32,2.53-5.32,5.84-5.32ZM313.45,214.58c0,2.37,1.17,3.99,3.18,3.99,2.11,0,3.38-1.72,3.38-4.12s-1.17-3.93-3.21-3.93-3.34,1.69-3.34,4.06ZM324.48,209.22l.49.32v2.01h-4.77v-.88l4.28-1.46Z"/>
    <path class="cls-4" d="M340.29,215.42c0,.75-.1,1.4-.23,1.82h-11.98v-1.36h7.72c1.56,0,1.92-.75,1.92-1.66,0-1.85-1.56-3.54-3.6-3.54s-4.48,1.75-4.48,6.39c0,4.12,2.08,6.33,5.32,6.33,2.08,0,3.38-.94,4.54-2.3l.75.58c-1.17,2.3-3.25,3.76-6.2,3.76-4.35,0-7.17-3.02-7.17-7.95s3.38-8.28,7.4-8.28c3.34,0,6,2.27,6,6.2Z"/>
    <path class="cls-4" d="M352.06,220.52c0,1.68,1.24,3.36,3.5,3.36,1.63,0,3.22-.71,4.05-1.89l.69.57c-.96,1.47-2.6,2.76-5.29,2.76-2.88,0-4.88-1.86-4.88-4.21s1.43-3.91,4.12-5.08l.46.67c-2.12.97-2.64,2.55-2.64,3.82ZM353.51,216.22c-1.15-1.31-1.59-2.48-1.59-3.7,0-2,1.59-3.24,3.73-3.24,2.25,0,3.47,1.22,3.47,2.94s-1.22,2.9-3.98,4.3l-.37-.64c1.66-1.06,2.88-2.14,2.88-3.61,0-1.36-.87-2.18-2.02-2.18s-2.12.92-2.12,2.16c0,.83.18,1.54,1.04,2.62.9,1.1,1.59,1.84,3.01,3.4,1.82,1.98,3.2,3.45,5.61,6.02l-1.15-.53,2.97.37-.09.97c-.67.16-1.13.23-1.72.23-1.2,0-1.91-.28-2.64-1.06-1.52-1.68-2.64-2.97-3.84-4.3-1.33-1.59-2.09-2.51-3.17-3.75ZM362.29,215.87h1.06c-.57,2.67-1.59,4.69-2.97,6.62l-.74-.46c1.26-1.79,2.14-3.7,2.64-6.16ZM362.55,216.43l-2.18-.34v-.92h4.65v.92l-2,.34h-.46Z"/>
    <path class="cls-4" d="M375.12,204.58v-1.3h9.09v1.3l-4.22.49h-.65l-4.22-.49ZM379.67,223.24v1.79h-4.54v-1.3l4.22-.49h.32ZM378.11,203.28h3.12c-.1,3.34-.1,6.72-.1,10.06v2.27c0,2.76,0,6.13.1,9.41h-3.12c.1-3.34.1-6.72.1-10.06v-1.62c0-3.41,0-6.78-.1-10.06ZM391.58,218.92l-.32,6.1h-11.59v-1.62h10.45l-1.79,1.62,1.3-6.1h1.95Z"/>
    <path class="cls-4" d="M396.64,225.03c.06-1.46.1-4.8.1-6.81v-1.53c0-1.79-.03-2.79-.1-4.09l-2.66-.29v-1.14l4.9-1.95.49.32-.1,4.38v4.28c0,2.01.03,5.35.1,6.81h-2.73ZM401.64,223.89v1.14h-7.46v-1.14l3.57-.65h.65l3.25.65ZM395.83,203.51c0-1.23.94-2.04,2.14-2.04s2.14.81,2.14,2.04-.94,2.04-2.14,2.04-2.14-.84-2.14-2.04Z"/>
    <path class="cls-4" d="M406.41,225.03c.06-1.46.1-4.8.1-6.81v-1.53c0-1.79-.03-2.79-.1-4.09l-2.6-.29v-1.14l4.41-1.95.49.32.39,3.76v4.9c0,2.01.03,5.35.1,6.81h-2.79ZM411.47,223.89v1.14h-7.46v-1.14l3.57-.65h.65l3.25.65ZM418.97,215.22v2.99c0,2.08.03,5.35.1,6.81h-2.79c.07-1.46.1-4.74.1-6.81v-2.73c0-3.02-.78-3.99-2.73-3.99-1.62,0-2.95.65-4.8,2.24h-.68v-1.46h1.66l-1.4.58c1.53-2.04,4.12-3.63,6.43-3.63,2.79,0,4.12,1.72,4.12,6ZM418.09,223.24l3.25.65v1.14h-7.46v-1.14l3.57-.65h.65Z"/>
    <path class="cls-4" d="M435.82,228.01c0-1.46-.91-2.56-3.28-2.56h-3.83c-.55,0-1.14-.03-1.62-.1v-.1c-1.66-.36-2.5-1.2-2.5-2.56,0-1.14.75-2.37,2.95-4.28l.71.49c-.97,1.04-1.4,1.75-1.4,2.73,0,.88.36,1.46,1.88,1.46h4.28c3.47,0,5.13,1.53,5.13,4.15,0,2.79-2.66,5.58-7.92,5.58-4.67,0-6.72-1.62-6.72-3.96,0-1.59,1.01-2.79,4.28-4.19l.16.2c-1.3,1.27-1.82,2.24-1.82,3.5,0,2.14,1.66,2.99,4.19,2.99,3.57,0,5.49-1.49,5.49-3.34ZM430.1,209.22c3.31,0,5.78,1.75,5.78,5.32s-2.53,5.32-5.81,5.32-5.81-1.75-5.81-5.32,2.53-5.32,5.84-5.32ZM426.79,214.58c0,2.37,1.17,3.99,3.18,3.99,2.11,0,3.38-1.72,3.38-4.12s-1.17-3.93-3.21-3.93-3.34,1.69-3.34,4.06ZM437.83,209.22l.49.32v2.01h-4.77v-.88l4.28-1.46Z"/>
    <path class="cls-4" d="M444.71,219.28c0,2.89.84,3.89,2.63,3.89,1.66,0,3.34-.81,4.97-2.43h.68v1.66h-1.66l1.14-.49c-1.85,2.5-4.06,3.54-6.17,3.54-2.6,0-4.22-1.56-4.19-5.84l.1-8.57.68.62-3.02-.65v-1.14l4.67-.42.32.32-.16,4.54v4.97ZM452.43,225.29l-.46-3.8.1-10.45.68.62-3.02-.65v-1.14l4.61-.42.33.32-.1,4.54v9.7l-.78-.78,3.02.65v1.14l-4.38.26Z"/>
    <path class="cls-4" d="M459.64,224.21l-.13-3.54h1.72l.88,3.83-1.59-.75v-1.1c1.14.88,2.37,1.33,3.99,1.33,2.5,0,3.67-1.01,3.67-2.5,0-1.4-.97-2.11-3.02-2.86l-1.49-.55c-2.37-.88-3.93-2.14-3.93-4.35,0-2.34,1.98-4.51,5.58-4.51,1.75,0,3.12.49,4.51,1.33l-.13,3.28h-1.62l-.65-3.28,1.17.52v.84c-1.04-.81-2.14-1.23-3.31-1.23-2.01,0-3.05.88-3.05,2.24,0,1.46.81,2.01,3.02,2.82l.97.36c3.25,1.2,4.48,2.73,4.48,4.74,0,2.4-2.11,4.61-6.26,4.61-1.82,0-3.21-.42-4.8-1.23Z"/>
    <path class="cls-4" d="M479.44,223.82c.71,0,1.36-.29,2.21-.91l.75.88c-.81,1.04-2.14,1.66-3.76,1.66-2.24,0-3.63-1.17-3.63-3.67,0-.78.03-1.46.03-2.73v-7.72h-2.73v-1.4l4.02-.52-1.3,1.07.97-5.26h1.88l-.26,5.68v10.52c0,1.69.71,2.4,1.82,2.4ZM482.1,209.64v1.69h-5.78v-1.69h5.78Z"/>
    <path class="cls-4" d="M486.09,225.03c.06-1.46.1-4.8.1-6.81v-1.53c0-1.79-.03-2.79-.1-4.09l-2.66-.29v-1.14l4.9-1.95.49.32-.1,4.38v4.28c0,2.01.03,5.35.1,6.81h-2.73ZM491.09,223.89v1.14h-7.46v-1.14l3.57-.65h.65l3.25.65ZM485.28,203.51c0-1.23.94-2.04,2.14-2.04s2.14.81,2.14,2.04-.94,2.04-2.14,2.04-2.14-.84-2.14-2.04Z"/>
    <path class="cls-4" d="M496.22,217.08c0,4.09,2.17,6.33,5.22,6.33,1.88,0,3.54-.91,4.54-2.53l.78.39c-.88,2.69-2.95,4.19-6,4.19-4.45,0-7.24-3.12-7.24-8.08s3.57-8.15,7.43-8.15c2.89,0,5.29,1.79,5.71,4.19-.16.81-.65,1.2-1.46,1.2-1.07,0-1.49-.65-1.72-1.46l-.81-2.86,1.49,1.2c-1.1-.58-2.21-.81-3.12-.81-2.82,0-4.83,2.24-4.83,6.39Z"/>
    <path class="cls-4" d="M214.46,258.88c0-2.11-1.27-3.05-4.09-4.15l-1.23-.49c-3.31-1.3-5.58-3.18-5.58-6.49,0-3.73,3.15-6,7.27-6,2.17,0,3.89.68,5.29,1.72l-.19,4.22h-1.95l-.91-4.9,2.08,1.07v1.62c-1.59-1.56-2.79-2.11-4.51-2.11-2.53,0-4.45,1.27-4.45,3.7,0,2.04,1.33,3.25,3.7,4.15l1.27.49c4.28,1.66,5.94,3.54,5.94,6.59,0,3.83-3.21,6.17-7.66,6.17-2.43,0-4.8-.78-6.3-1.72l.2-4.54h1.95l.84,5-2.11-.91v-1.56c2.01,1.46,3.12,2.11,5.32,2.11,3.08,0,5.13-1.43,5.13-3.96Z"/>
    <path class="cls-4" d="M233.28,254.37c0,.75-.1,1.4-.23,1.82h-11.98v-1.36h7.72c1.56,0,1.92-.75,1.92-1.66,0-1.85-1.56-3.54-3.6-3.54s-4.48,1.75-4.48,6.39c0,4.12,2.08,6.33,5.32,6.33,2.08,0,3.38-.94,4.54-2.3l.75.58c-1.17,2.3-3.25,3.76-6.2,3.76-4.35,0-7.17-3.02-7.17-7.95s3.38-8.28,7.4-8.28c3.34,0,6,2.27,6,6.2Z"/>
    <path class="cls-4" d="M238.64,263.97c.06-1.46.1-4.8.1-6.82v-1.53c0-1.79-.03-2.79-.1-4.09l-2.6-.29v-1.14l4.41-1.95.49.32.39,3.76v4.9c0,2.01.03,5.35.1,6.82h-2.79ZM243.7,262.84v1.14h-7.46v-1.14l3.57-.65h.65l3.25.65ZM251.07,254.17v2.99c0,2.08.03,5.35.1,6.82h-2.79c.07-1.46.1-4.74.1-6.82v-2.73c0-3.02-.78-3.99-2.73-3.99-1.59,0-2.86.65-4.67,2.24h-.68v-1.46h1.66l-1.4.58c1.53-2.04,4.03-3.63,6.3-3.63,2.79,0,4.12,1.72,4.12,6ZM250.19,262.19l3.25.65v1.14h-7.46v-1.14l3.57-.65h.65ZM260.8,253.82v3.34c0,2.08.03,5.35.1,6.82h-2.79c.06-1.46.1-4.74.1-6.82v-2.79c0-3.05-.84-3.93-2.76-3.93-1.46,0-2.82.58-4.64,2.24h-.78v-1.14h1.75l-1.49.26c1.69-2.4,4.09-3.63,6.39-3.63,2.6,0,4.12,1.62,4.12,5.65ZM259.93,262.19l3.25.65v1.14h-7.46v-1.14l3.57-.65h.65Z"/>
    <path class="cls-4" d="M267.75,263.97c.06-1.46.1-4.8.1-6.82v-1.53c0-1.79-.03-2.79-.1-4.09l-2.66-.29v-1.14l4.9-1.95.49.32-.1,4.38v4.28c0,2.01.03,5.35.1,6.82h-2.73ZM272.75,262.84v1.14h-7.46v-1.14l3.57-.65h.65l3.25.65ZM266.94,242.46c0-1.23.94-2.04,2.14-2.04s2.14.81,2.14,2.04-.94,2.04-2.14,2.04-2.14-.84-2.14-2.04Z"/>
    <path class="cls-4" d="M277.52,263.97c.06-1.46.1-4.8.1-6.82v-1.53c0-1.79-.03-2.79-.1-4.09l-2.6-.29v-1.14l4.41-1.95.49.32.39,3.76v4.9c0,2.01.03,5.35.1,6.82h-2.79ZM282.58,262.84v1.14h-7.46v-1.14l3.57-.65h.65l3.25.65ZM290.08,254.17v2.99c0,2.08.03,5.35.1,6.82h-2.79c.07-1.46.1-4.74.1-6.82v-2.73c0-3.02-.78-3.99-2.73-3.99-1.62,0-2.95.65-4.8,2.24h-.68v-1.46h1.66l-1.4.58c1.53-2.04,4.12-3.63,6.43-3.63,2.79,0,4.12,1.72,4.12,6ZM289.2,262.19l3.25.65v1.14h-7.46v-1.14l3.57-.65h.65Z"/>
    <path class="cls-4" d="M300.24,255.47c1.36-.49,3.41-1.07,5.03-1.36v1.17c-1.46.29-3.38.91-4.35,1.3-2.92,1.14-3.25,2.37-3.25,3.31,0,1.72,1.14,2.4,2.63,2.4,1.14,0,1.79-.42,3.83-1.88l.65-.49.45.68-.94.94c-1.95,1.95-3.05,2.86-5.03,2.86-2.37,0-4.35-1.36-4.35-4.06,0-1.82.97-3.28,5.32-4.87ZM303.97,260.99v-7.4c0-3.18-.91-3.96-3.05-3.96-.75,0-1.72.1-2.92.58l1.3-1.01-.84,2.79c-.29.94-.78,1.46-1.66,1.46s-1.4-.49-1.46-1.3c.62-2.47,3.02-3.99,6.26-3.99s4.97,1.53,4.97,5.61v6.88c0,1.46.45,1.98,1.2,1.98.55,0,.91-.29,1.27-.71l.65.71c-.78,1.23-1.66,1.66-2.76,1.66-1.79,0-2.95-1.3-2.95-3.31Z"/>
    <path class="cls-4" d="M313.58,257.16v-1.53c0-1.79-.03-2.79-.1-4.09l-2.6-.29v-1.14l4.41-1.95.49.32.39,4.06v4.61c0,2.01.03,5.35.1,6.82h-2.79c.06-1.46.1-4.8.1-6.82ZM311.14,262.84l3.57-.65h.65l3.57.65v1.14h-7.79v-1.14ZM314.88,252.78h1.85l-.81.23c1.04-3.02,3.02-4.84,4.93-4.84.94,0,1.92.45,2.3,1.1,0,1.53-.58,2.37-1.88,2.37-.75,0-1.36-.29-1.95-.78l-.88-.75,1.59-.32c-2.01,1.04-3.18,2.66-3.93,5.16h-1.23v-2.17Z"/>
    <path class="cls-4" d="M343.6,258.88c0-2.11-1.27-3.05-4.09-4.15l-1.23-.49c-3.31-1.3-5.58-3.18-5.58-6.49,0-3.73,3.15-6,7.27-6,2.17,0,3.89.68,5.29,1.72l-.19,4.22h-1.95l-.91-4.9,2.08,1.07v1.62c-1.59-1.56-2.79-2.11-4.51-2.11-2.53,0-4.45,1.27-4.45,3.7,0,2.04,1.33,3.25,3.7,4.15l1.27.49c4.28,1.66,5.94,3.54,5.94,6.59,0,3.83-3.21,6.17-7.66,6.17-2.43,0-4.8-.78-6.3-1.72l.2-4.54h1.95l.84,5-2.11-.91v-1.56c2.01,1.46,3.12,2.11,5.32,2.11,3.08,0,5.13-1.43,5.13-3.96Z"/>
    <path class="cls-4" d="M362.43,254.37c0,.75-.1,1.4-.23,1.82h-11.98v-1.36h7.72c1.56,0,1.92-.75,1.92-1.66,0-1.85-1.56-3.54-3.6-3.54s-4.48,1.75-4.48,6.39c0,4.12,2.08,6.33,5.32,6.33,2.08,0,3.38-.94,4.54-2.3l.75.58c-1.17,2.3-3.25,3.76-6.2,3.76-4.35,0-7.17-3.02-7.17-7.95s3.38-8.28,7.4-8.28c3.34,0,6,2.27,6,6.2Z"/>
    <path class="cls-4" d="M367.88,257.16v-1.53c0-1.79-.03-2.79-.1-4.09l-2.6-.29v-1.14l4.41-1.95.49.32.39,4.06v4.61c0,2.01.03,5.35.1,6.82h-2.79c.06-1.46.1-4.8.1-6.82ZM365.44,262.84l3.57-.65h.65l3.57.65v1.14h-7.79v-1.14ZM369.18,252.78h1.85l-.81.23c1.04-3.02,3.02-4.84,4.93-4.84.94,0,1.92.45,2.3,1.1,0,1.53-.58,2.37-1.88,2.37-.75,0-1.36-.29-1.95-.78l-.88-.75,1.59-.32c-2.01,1.04-3.18,2.66-3.93,5.16h-1.23v-2.17Z"/>
    <path class="cls-4" d="M381.28,263.97c.06-1.46.1-4.8.1-6.82v-1.53c0-1.79-.03-2.79-.1-4.09l-2.66-.29v-1.14l4.9-1.95.49.32-.1,4.38v4.28c0,2.01.03,5.35.1,6.82h-2.73ZM386.28,262.84v1.14h-7.46v-1.14l3.57-.65h.65l3.25.65ZM380.47,242.46c0-1.23.94-2.04,2.14-2.04s2.14.81,2.14,2.04-.94,2.04-2.14,2.04-2.14-.84-2.14-2.04Z"/>
    <path class="cls-4" d="M402.22,254.37c0,.75-.1,1.4-.23,1.82h-11.98v-1.36h7.72c1.56,0,1.92-.75,1.92-1.66,0-1.85-1.56-3.54-3.6-3.54s-4.48,1.75-4.48,6.39c0,4.12,2.08,6.33,5.32,6.33,2.08,0,3.38-.94,4.54-2.3l.75.58c-1.17,2.3-3.25,3.76-6.2,3.76-4.35,0-7.17-3.02-7.17-7.95s3.38-8.28,7.4-8.28c3.34,0,6,2.27,6,6.2Z"/>
    <path class="cls-4" d="M405.53,263.16l-.13-3.54h1.72l.88,3.83-1.59-.75v-1.1c1.14.88,2.37,1.33,3.99,1.33,2.5,0,3.67-1.01,3.67-2.5,0-1.4-.97-2.11-3.02-2.86l-1.49-.55c-2.37-.88-3.93-2.14-3.93-4.35,0-2.34,1.98-4.51,5.58-4.51,1.75,0,3.12.49,4.51,1.33l-.13,3.28h-1.62l-.65-3.28,1.17.52v.84c-1.04-.81-2.14-1.23-3.31-1.23-2.01,0-3.05.88-3.05,2.24,0,1.46.81,2.01,3.02,2.82l.97.36c3.25,1.2,4.48,2.73,4.48,4.74,0,2.4-2.11,4.61-6.26,4.61-1.82,0-3.21-.42-4.8-1.23Z"/>
  </g>
  <g>
    <path class="cls-4" d="M-455.31,195.81h6.37v26.03h13.96l-.7,5.22h-19.63v-31.25Z"/>
    <path class="cls-4" d="M-412.21,220.94c0,1.6.1,4.44.33,6.12h-5.43c-.18-.71-.32-2.13-.36-2.85-.98,1.92-3.2,3.27-6.61,3.27-5.84,0-7.91-3.64-7.91-7.21,0-4.25,2.94-7.75,11.13-7.75h2.77v-1.72c0-1.93-.6-3.43-3.37-3.43s-3.4,1.4-3.62,3.14h-6c.25-3.73,2.48-7.51,9.72-7.51,5.58,0,9.35,1.92,9.35,7.76v10.18ZM-418.09,216.47h-2.87c-4.23,0-5.02,1.72-5.02,3.3s.96,2.99,3.32,2.99c3.7,0,4.57-2.46,4.57-5.8v-.5Z"/>
    <path class="cls-4" d="M-406.38,210.81c0-4.87-.05-6.32-.09-7.36h6.04c.09.42.22,1.94.21,3.05.96-1.83,3.2-3.51,6.58-3.51,4.96,0,7.46,3.16,7.46,8.59v15.47h-6.21v-14.29c0-2.67-.66-4.67-3.6-4.67s-4.19,1.64-4.19,5.78v13.18h-6.2v-16.25Z"/>
    <path class="cls-4" d="M-359.97,224.73c0,7.28-2.99,11.79-11.16,11.79-7.64,0-9.88-4.13-10.16-7.64h6.12c.39,1.85,1.89,2.86,4.41,2.86,3.93,0,4.77-2.31,4.77-6.59v-1.47c-1.19,2.23-3.46,3.08-6.31,3.08-5.65,0-9.39-4.45-9.39-11.76s4.52-12.02,9.82-12.02c3.72,0,5.19,1.36,5.75,2.62,0-.55.17-1.73.26-2.16h6c-.05,1.17-.09,3.82-.09,7.11v14.16ZM-375.33,214.89c0,4.19,1.72,6.81,4.74,6.81,3.53,0,4.75-2.03,4.75-6.86,0-4.34-.61-6.77-4.6-6.77-2.75,0-4.89,2.01-4.89,6.83Z"/>
    <path class="cls-4" d="M-334.47,220.09c0,3.4.05,5.76.09,6.97h-6.03c-.14-.71-.18-1.72-.22-2.84-1.46,2.47-3.57,3.25-6.5,3.25-4.72,0-7.29-2.96-7.29-8.28v-15.74h6.16v14.71c0,2.49.88,4.2,3.43,4.2s4.15-1.6,4.15-5.74v-13.17h6.21v16.64Z"/>
    <path class="cls-4" d="M-309.97,220.94c0,1.6.1,4.44.33,6.12h-5.43c-.18-.71-.32-2.13-.36-2.85-.98,1.92-3.2,3.27-6.61,3.27-5.84,0-7.91-3.64-7.91-7.21,0-4.25,2.94-7.75,11.13-7.75h2.77v-1.72c0-1.93-.6-3.43-3.37-3.43s-3.4,1.4-3.62,3.14h-6c.25-3.73,2.48-7.51,9.72-7.51,5.58,0,9.35,1.92,9.35,7.76v10.18ZM-315.84,216.47h-2.87c-4.23,0-5.02,1.72-5.02,3.3s.96,2.99,3.32,2.99c3.7,0,4.57-2.46,4.57-5.8v-.5Z"/>
    <path class="cls-4" d="M-283.77,224.73c0,7.28-2.99,11.79-11.16,11.79-7.64,0-9.88-4.13-10.16-7.64h6.12c.39,1.85,1.89,2.86,4.41,2.86,3.93,0,4.77-2.31,4.77-6.59v-1.47c-1.19,2.23-3.46,3.08-6.31,3.08-5.65,0-9.39-4.45-9.39-11.76s4.52-12.02,9.82-12.02c3.72,0,5.19,1.36,5.75,2.62,0-.55.17-1.73.26-2.16h6c-.05,1.17-.09,3.82-.09,7.11v14.16ZM-299.12,214.89c0,4.19,1.72,6.81,4.74,6.81,3.53,0,4.75-2.03,4.75-6.86,0-4.34-.61-6.77-4.6-6.77-2.75,0-4.89,2.01-4.89,6.83Z"/>
    <path class="cls-4" d="M-273.16,216.65c0,2.9,1.1,5.96,4.61,5.96,2.81,0,3.69-1.75,4.03-2.79h6.08c-1.14,3.92-3.9,7.65-10.29,7.65-7.54,0-10.68-5.14-10.68-12.2,0-5.85,2.93-12.28,10.94-12.28s10.32,5.66,10.32,11.73c0,.32-.04,1.56-.08,1.92h-14.93ZM-264.2,212.61c-.1-2.66-1.17-4.96-4.37-4.96-3.52,0-4.39,2.85-4.51,4.96h8.87Z"/>
  </g>
  <g>
    <path class="cls-4" d="M-454.85,246.63h3.59v30.51h8.49l-.4,3.23h-11.68v-33.74Z"/>
    <path class="cls-4" d="M-439.68,254.65h3.59v25.71h-3.59v-25.71ZM-439.65,245.13h3.59v5.22h-3.59v-5.22Z"/>
    <path class="cls-4" d="M-431.35,262.48c0-5.16,0-6.56-.05-7.83h3.42c.07.58.15,1.47.15,2.57.76-1.88,2.29-2.98,4.71-2.98,2.81,0,5.07,1.61,5.07,6.33v19.79h-3.59v-19.08c0-2.49-.83-3.75-2.7-3.75-2.15,0-3.42,1.07-3.42,5.93v16.9h-3.59v-17.88Z"/>
    <path class="cls-4" d="M-400.67,279.83c0,5.22-.58,9.61-7.02,9.61-5.36,0-6.37-3.6-6.37-6.4v-.13h3.62v.16c0,1.27.48,3.32,2.94,3.32,2.65,0,3.23-1.98,3.23-5.68v-3.31c-.68,1.75-2.07,2.68-4.35,2.68-3.93,0-5.44-2.87-5.44-7.87v-10.33c0-4.52,1.96-7.64,5.97-7.64,2.64,0,3.83,1.34,4.21,2.64,0-.73.12-1.7.2-2.24h3.11c-.05,1.42-.1,3.73-.1,6.77v18.41ZM-410.43,262.08v9.84c0,3.3.86,4.92,2.81,4.92,2.93,0,3.39-2.93,3.39-6.39v-7.59c0-2.96-.31-5.33-3.06-5.33-2.2,0-3.14,1.62-3.14,4.55Z"/>
    <path class="cls-4" d="M-382.93,273.42c0,3.33,0,5.73.05,6.95h-3.42c-.07-.47-.15-1.77-.15-2.67-.79,2.33-2.42,3.08-4.62,3.08s-5-.82-5-6.57v-19.55h3.59v18.61c0,3.05.82,4.25,2.73,4.25,1.8,0,3.23-1.09,3.23-6v-16.86h3.59v18.76Z"/>
    <path class="cls-4" d="M-376.28,272.72v1.13c0,2.49.99,3.83,2.83,3.83,1.95,0,2.73-1.23,2.73-3.59,0-2.48-.73-3.67-3.66-5.61-3.44-2.27-5.05-4.08-5.05-7.64,0-3.8,1.84-6.58,6.04-6.58,4.55,0,5.96,2.9,5.96,6.76v1.18h-3.5v-1.42c0-2.19-.63-3.42-2.49-3.42-1.71,0-2.42,1.19-2.42,3.17s.62,2.88,3.19,4.6c3.78,2.48,5.56,4.27,5.56,8.5,0,4.66-2.1,7.15-6.52,7.15-5.04,0-6.32-3.35-6.32-6.89v-1.16h3.64Z"/>
    <path class="cls-4" d="M-365.64,254.65h2.95v-6.32h3.56v6.32h3.62v3.19h-3.62v17.26c0,1.32.23,2.59,1.85,2.59.48,0,1.25-.05,1.61-.15v2.78c-.77.32-1.92.39-2.79.39-2.49,0-4.24-1.03-4.24-4.96v-17.92h-2.95v-3.19Z"/>
    <path class="cls-4" d="M-352.71,254.65h3.59v25.71h-3.59v-25.71ZM-352.69,245.13h3.59v5.22h-3.59v-5.22Z"/>
    <path class="cls-4" d="M-332.47,272.24v.35c0,4.44-1.13,8.17-6.4,8.17s-6.24-3.48-6.24-8.68v-9.98c0-4.35,1.58-7.86,6.47-7.86,5.26,0,6.17,3.86,6.17,7.29v1.04h-3.57v-.89c0-2.33-.39-4.35-2.67-4.35-1.99,0-2.78,1.5-2.78,4.54v11.03c0,2.33.44,4.76,2.72,4.76,2.03,0,2.73-1.37,2.73-4.62v-.81h3.57Z"/>
    <path class="cls-4" d="M-326.28,272.72v1.13c0,2.49.99,3.83,2.83,3.83,1.95,0,2.73-1.23,2.73-3.59,0-2.48-.73-3.67-3.66-5.61-3.44-2.27-5.05-4.08-5.05-7.64,0-3.8,1.84-6.58,6.04-6.58,4.55,0,5.96,2.9,5.96,6.76v1.18h-3.5v-1.42c0-2.19-.63-3.42-2.49-3.42-1.71,0-2.42,1.19-2.42,3.17s.62,2.88,3.19,4.6c3.78,2.48,5.56,4.27,5.56,8.5,0,4.66-2.1,7.15-6.52,7.15-5.04,0-6.32-3.35-6.32-6.89v-1.16h3.64Z"/>
  </g>
  <g>
    <path class="cls-4" d="M-452.46,306.99v.98c0,1.58.55,2.43,1.73,2.43s1.68-.87,1.68-2.72c0-1.97-.43-2.74-2.21-4.12-1.8-1.41-2.72-2.26-2.72-4.74,0-2.13.64-4.18,3.28-4.17,2.51.01,3.17,1.68,3.17,3.82v.78h-1.78v-.73c0-1.4-.27-2.3-1.42-2.3s-1.45,1.01-1.45,2.33c0,1.57.31,2.16,1.86,3.33,2.34,1.77,3.08,2.75,3.08,5.55,0,2.37-.68,4.52-3.52,4.52s-3.49-1.78-3.49-4v-.97h1.79Z"/>
    <path class="cls-4" d="M-443.76,305.68v2.1c0,1.28.25,2.61,1.52,2.61s1.44-.99,1.44-2.22v-.1h1.76v.09c0,1.49-.35,3.78-3.19,3.78-2.68,0-3.28-1.76-3.28-4.36v-4.78c0-1.95.68-4.09,3.31-4.09,2.48,0,3.2,1.83,3.2,4.09v2.89h-4.75ZM-440.74,304.22v-1.6c0-1.2-.19-2.37-1.48-2.37-1.21,0-1.53,1-1.53,2.39v1.59h3.01Z"/>
    <path class="cls-4" d="M-437.11,302.59c0-2.33,0-3.08-.03-3.7h1.71c.06.38.06.78.07,1.2.38-.87,1.09-1.4,2.2-1.4.99,0,1.71.41,1.99,1.48.4-.79,1.06-1.48,2.37-1.48s2.42.56,2.42,3.04v10h-1.79v-9.63c0-1.01-.2-1.76-1.2-1.76-1.2,0-1.47,1.07-1.47,2.46v8.94h-1.8v-9.52c0-1.38-.35-1.87-1.22-1.87-1.17,0-1.45,1.1-1.45,2.56v8.83h-1.79v-9.14Z"/>
    <path class="cls-4" d="M-424.03,298.9h1.79v12.83h-1.79v-12.83ZM-424.02,294.15h1.79v2.6h-1.79v-2.6Z"/>
    <path class="cls-4" d="M-419.87,302.81c0-2.58,0-3.27-.03-3.91h1.71c.04.29.07.74.07,1.28.38-.94,1.14-1.48,2.35-1.48,1.4,0,2.53.8,2.53,3.16v9.87h-1.79v-9.52c0-1.24-.42-1.87-1.35-1.87-1.08,0-1.71.53-1.71,2.96v8.43h-1.79v-8.93Z"/>
    <path class="cls-4" d="M-405.06,309.51c0,.88.01,1.84.05,2.22h-1.66c-.06-.31-.12-.83-.13-1.04-.41.95-1.2,1.24-2.1,1.24-1.85,0-2.59-1.64-2.59-3.62v-.23c0-2.9,1.8-3.93,4.09-3.93h.56v-2.03c0-1.16-.2-1.9-1.2-1.9s-1.27.76-1.27,1.76v.34h-1.77v-.32c0-1.79.7-3.31,3.1-3.31,2.24,0,2.94,1.4,2.94,3.29v7.52ZM-406.82,305.58h-.63c-1.45,0-2.32.61-2.32,2.46v.22c0,1.15.36,2.07,1.36,2.07,1.18,0,1.59-.94,1.59-2.87v-1.88Z"/>
    <path class="cls-4" d="M-402.68,303.27c0-2.07.01-3.23-.03-4.37h1.71c.03.34.06,1.14.06,2,.47-1.58,1.58-2.15,2.7-2.18v2.21c-1.59.01-2.66.93-2.66,3.25v7.55h-1.79v-8.46Z"/>
    <path class="cls-4" d="M-392.56,306.99v.98c0,1.58.55,2.43,1.73,2.43s1.68-.87,1.68-2.72c0-1.97-.43-2.74-2.21-4.12-1.8-1.41-2.72-2.26-2.72-4.74,0-2.13.64-4.18,3.28-4.17,2.51.01,3.17,1.68,3.17,3.82v.78h-1.78v-.73c0-1.4-.27-2.3-1.42-2.3s-1.45,1.01-1.45,2.33c0,1.57.31,2.16,1.86,3.33,2.34,1.77,3.08,2.75,3.08,5.55,0,2.37-.68,4.52-3.52,4.52s-3.49-1.78-3.49-4v-.97h1.79Z"/>
    <path class="cls-4" d="M-383.87,305.68v2.1c0,1.28.25,2.61,1.52,2.61s1.44-.99,1.44-2.22v-.1h1.76v.09c0,1.49-.35,3.78-3.19,3.78-2.68,0-3.28-1.76-3.28-4.36v-4.78c0-1.95.68-4.09,3.31-4.09,2.48,0,3.2,1.83,3.2,4.09v2.89h-4.75ZM-380.85,304.22v-1.6c0-1.2-.19-2.37-1.48-2.37-1.21,0-1.53,1-1.53,2.39v1.59h3.01Z"/>
    <path class="cls-4" d="M-377.21,303.27c0-2.07.01-3.23-.03-4.37h1.71c.03.34.06,1.14.06,2,.47-1.58,1.58-2.15,2.7-2.18v2.21c-1.59.01-2.66.93-2.66,3.25v7.55h-1.79v-8.46Z"/>
    <path class="cls-4" d="M-371.47,298.9h1.79v12.83h-1.79v-12.83ZM-371.45,294.15h1.79v2.6h-1.79v-2.6Z"/>
    <path class="cls-4" d="M-365.92,305.68v2.1c0,1.28.25,2.61,1.52,2.61s1.44-.99,1.44-2.22v-.1h1.76v.09c0,1.49-.35,3.78-3.19,3.78-2.68,0-3.28-1.76-3.28-4.36v-4.78c0-1.95.68-4.09,3.31-4.09,2.48,0,3.2,1.83,3.2,4.09v2.89h-4.75ZM-362.9,304.22v-1.6c0-1.2-.19-2.37-1.48-2.37-1.21,0-1.53,1-1.53,2.39v1.59h3.01Z"/>
    <path class="cls-4" d="M-357.95,307.92v.56c0,1.25.5,1.91,1.41,1.91.97,0,1.36-.61,1.36-1.79,0-1.24-.37-1.83-1.83-2.8-1.72-1.13-2.52-2.04-2.52-3.82,0-1.9.92-3.29,3.02-3.29,2.27,0,2.97,1.45,2.97,3.38v.59h-1.75v-.71c0-1.09-.32-1.71-1.24-1.71-.85,0-1.21.59-1.21,1.58s.31,1.44,1.59,2.29c1.89,1.24,2.78,2.13,2.78,4.24,0,2.33-1.05,3.57-3.25,3.57-2.51,0-3.15-1.67-3.15-3.44v-.58h1.82Z"/>
  </g>
  <g>
    <path class="cls-4" d="M-454.2,337.92v-.25c.01-2.59,1.19-4.58,3.14-7.45,1.33-1.95,1.7-2.71,1.7-4.54,0-1.96-.3-2.83-1.47-2.83s-1.53.87-1.53,2.3v.76h-1.67v-.82c0-1.79.55-3.77,3.29-3.77,2.58,0,3.21,1.85,3.21,4.27,0,2.57-.7,3.56-2.01,5.42-1.51,2.18-2.53,3.93-2.65,5.33h5.02l-.25,1.57h-6.76Z"/>
    <path class="cls-4" d="M-438.96,325.5v8.39c0,2.79-1.07,4.24-3.51,4.24-2.24,0-3.39-1.4-3.39-4.2v-8.32c0-3.09,1.45-4.27,3.5-4.27s3.4,1.16,3.4,4.16ZM-444.08,325.45v8.6c0,1.63.51,2.41,1.68,2.41,1.06,0,1.64-.62,1.64-2.48v-8.56c0-1.76-.63-2.42-1.65-2.42s-1.67.58-1.67,2.44Z"/>
    <path class="cls-4" d="M-437.52,337.92v-.25c.01-2.59,1.19-4.58,3.14-7.45,1.33-1.95,1.7-2.71,1.7-4.54,0-1.96-.3-2.83-1.47-2.83s-1.53.87-1.53,2.3v.76h-1.68v-.82c0-1.79.55-3.77,3.29-3.77,2.58,0,3.21,1.85,3.21,4.27,0,2.57-.7,3.56-2.01,5.42-1.51,2.18-2.53,3.93-2.65,5.33h5.02l-.25,1.57h-6.76Z"/>
    <path class="cls-4" d="M-425.37,337.92v-4.44h-4.64v-1.32l3.98-10.63h2.33v10.44h1.29l-.16,1.51h-1.13v4.44h-1.68ZM-425.37,328.04c0-1.55.05-3.12.09-4.66h-.03c-.9,2.84-1.96,5.8-2.95,8.6h2.89v-3.94Z"/>
  </g>
  <g>
    <path class="cls-4" d="M133,217.28v-.25c.01-2.59,1.19-4.58,3.14-7.45,1.33-1.95,1.7-2.71,1.7-4.54,0-1.96-.3-2.83-1.47-2.83s-1.53.87-1.53,2.3v.76h-1.67v-.82c0-1.79.55-3.77,3.29-3.77,2.58,0,3.21,1.85,3.21,4.27,0,2.57-.7,3.56-2.01,5.42-1.51,2.18-2.53,3.93-2.65,5.33h5.02l-.25,1.57h-6.76Z"/>
    <path class="cls-4" d="M148.25,204.86v8.39c0,2.79-1.07,4.24-3.51,4.24-2.24,0-3.39-1.4-3.39-4.2v-8.32c0-3.09,1.45-4.27,3.5-4.27s3.4,1.16,3.4,4.16ZM143.13,204.8v8.6c0,1.63.51,2.41,1.68,2.41,1.06,0,1.64-.62,1.64-2.48v-8.56c0-1.76-.63-2.42-1.65-2.42s-1.67.58-1.67,2.44Z"/>
    <path class="cls-4" d="M149.69,217.28v-.25c.01-2.59,1.19-4.58,3.14-7.45,1.33-1.95,1.7-2.71,1.7-4.54,0-1.96-.3-2.83-1.47-2.83s-1.53.87-1.53,2.3v.76h-1.68v-.82c0-1.79.55-3.77,3.29-3.77,2.58,0,3.21,1.85,3.21,4.27,0,2.57-.7,3.56-2.01,5.42-1.51,2.18-2.53,3.93-2.65,5.33h5.02l-.25,1.57h-6.76Z"/>
    <path class="cls-4" d="M161.84,217.28v-4.44h-4.64v-1.32l3.98-10.63h2.33v10.44h1.29l-.16,1.51h-1.13v4.44h-1.68ZM161.84,207.39c0-1.55.05-3.12.09-4.66h-.03c-.9,2.84-1.96,5.8-2.95,8.6h2.89v-3.94Z"/>
  </g>
</svg>