<?xml version="1.0" encoding="UTF-8"?>
<svg id="Layer_2" data-name="Layer 2" xmlns="http://www.w3.org/2000/svg" viewBox="0 0 24.94 24.94">
  <defs>
    <style>
      .cls-1 {
        fill: #6477e2;
      }

      .cls-1, .cls-2 {
        stroke-width: 0px;
      }

      .cls-2 {
        fill: #fff;
      }
    </style>
  </defs>
  <g id="Layer_1-2" data-name="Layer 1">
    <g>
      <rect class="cls-1" x="0" y="0" width="24.94" height="24.94" rx="4.81" ry="4.81"/>
      <g>
        <path class="cls-2" d="M12.7,13.73c1.09,0,2.13,0,3.16,0,.63,0,1.27-.01,1.9.04,1.46.12,2.58,1.4,2.54,2.85-.04,1.49-1.21,2.7-2.69,2.75-.94.03-1.89.03-2.83,0-1.34-.05-2.41-1.02-2.61-2.35-.09-.55-.11-1.12-.11-1.68-.01-2.78,0-5.57,0-8.35,0-.96-.45-1.66-1.32-2.04-.85-.38-1.65-.21-2.35.38-.52.45-.72,1.04-.72,1.72,0,2.97,0,5.94,0,8.9,0,.37,0,.74.04,1.1.13.89.51,1.66,1.33,2.27-.61-.16-1-.47-1.32-.87-.5-.62-.69-1.34-.69-2.12,0-3.13,0-6.26,0-9.39,0-1.58,1.24-2.82,2.79-2.83,1.59,0,2.86,1.22,2.88,2.82.02,2.12,0,4.23,0,6.35,0,.14,0,.27,0,.45ZM13.48,18.13c.35.42.76.6,1.33.61.89,0,1.77,0,2.66,0,1.23,0,2.19-.97,2.19-2.19,0-1.21-.98-2.18-2.21-2.18-1.46,0-2.92,0-4.39,0-.11,0-.22.01-.35.02v.6c.16,0,.29,0,.43,0,1.45,0,2.9-.02,4.35,0,.86,0,1.56.74,1.55,1.58,0,.83-.68,1.52-1.54,1.55-.47.02-.94,0-1.42,0-.85,0-1.7,0-2.62,0ZM12.86,16.88c.16.76.11.62.7.62,1.24,0,2.48,0,3.73,0,.14,0,.28,0,.41-.03.45-.12.73-.55.69-1.02-.04-.45-.43-.8-.93-.81-1.43,0-2.85,0-4.28,0-.15,0-.29,0-.43,0q-.05.62.52.62c1.35,0,2.69,0,4.04,0,.23,0,.44.05.44.32,0,.26-.21.32-.44.32-.46,0-.92,0-1.38,0-1.01,0-2.02,0-3.06,0Z"/>
        <path class="cls-2" d="M12.69,19.33c-.99-.33-1.89-1.61-1.9-2.88,0-3.04,0-6.07,0-9.11,0-.12,0-.23,0-.35-.01-.58-.42-1.01-.96-1-.52.01-.91.44-.91,1.01,0,3.19,0,6.37,0,9.56,0,.13,0,.25.03.38.13.94.56,1.71,1.29,2.35-.18-.09-.37-.16-.54-.27-.9-.64-1.41-1.49-1.41-2.62,0-3.12,0-6.24,0-9.35,0-.99.66-1.69,1.56-1.7.9,0,1.58.7,1.58,1.69,0,3.12,0,6.24,0,9.35,0,.91.26,1.72.86,2.41.14.17.27.35.4.52Z"/>
        <path class="cls-2" d="M11.54,19.28c-.6-.15-1.02-.55-1.38-1.01-.4-.51-.61-1.1-.61-1.76,0-3.14,0-6.28,0-9.42,0-.06-.02-.14,0-.17.1-.11.2-.26.32-.28.09-.01.23.15.29.26.05.09.02.22.02.34,0,2.98,0,5.96,0,8.94,0,1.24.36,2.3,1.36,3.09Z"/>
      </g>
    </g>
  </g>
</svg>