<?xml version="1.0" encoding="UTF-8"?>
<svg id="Layer_1" data-name="Layer 1" xmlns="http://www.w3.org/2000/svg" version="1.1" viewBox="0 0 177.37 52.6">
  <defs>
    <style>
      .cls-1 {
        font-family: Helvetica, Helvetica;
        font-size: 6.73px;
        letter-spacing: .5em;
      }

      .cls-1, .cls-2 {
        fill: #fff;
      }

      .cls-2 {
        stroke-width: 0px;
      }
    </style>
  </defs>
  <path class="cls-2" d="M10.39,5.83h5.39v11.81h7.22v4.18h-12.61V5.83Z"/>
  <path class="cls-2" d="M35.6,19.03h-6.08l-1.07,2.79h-5.48l6.99-15.99h5.3l6.99,15.99h-5.57l-1.07-2.79ZM34.11,15.15l-1.55-4.02-1.55,4.02h3.11Z"/>
  <path class="cls-2" d="M58.87,5.83v15.99h-4.43l-6.08-7.26v7.26h-5.25V5.83h4.43l6.08,7.26v-7.26h5.25Z"/>
  <path class="cls-2" d="M72.04,13.39h4.68v6.76c-1.94,1.33-4.61,2.03-6.97,2.03-5.16,0-8.93-3.45-8.93-8.36s3.77-8.36,9.05-8.36c3.15,0,5.69,1.1,7.31,3.08l-3.45,3.04c-1-1.17-2.17-1.76-3.59-1.76-2.38,0-3.88,1.53-3.88,4s1.51,4,3.81,4c.66,0,1.3-.11,1.96-.39v-4.04Z"/>
  <path class="cls-2" d="M78.89,14.62V5.83h5.39v8.63c0,2.44.94,3.36,2.44,3.36s2.44-.91,2.44-3.36V5.83h5.3v8.79c0,4.8-2.88,7.56-7.79,7.56s-7.79-2.76-7.79-7.56Z"/>
  <path class="cls-2" d="M107.48,19.03h-6.08l-1.07,2.79h-5.48l6.99-15.99h5.3l6.99,15.99h-5.57l-1.07-2.79ZM106,15.15l-1.55-4.02-1.55,4.02h3.11Z"/>
  <path class="cls-2" d="M125.34,13.39h4.68v6.76c-1.94,1.33-4.61,2.03-6.97,2.03-5.16,0-8.93-3.45-8.93-8.36s3.77-8.36,9.05-8.36c3.15,0,5.69,1.1,7.31,3.08l-3.45,3.04c-1-1.17-2.17-1.76-3.59-1.76-2.38,0-3.88,1.53-3.88,4s1.51,4,3.81,4c.66,0,1.3-.11,1.96-.39v-4.04Z"/>
  <path class="cls-2" d="M145.62,17.75v4.07h-13.29V5.83h13v4.07h-7.7v1.87h6.76v3.88h-6.76v2.1h7.99Z"/>
  <path class="cls-2" d="M146.69,20.54l1.74-3.93c1.51.89,3.52,1.46,5.28,1.46,1.53,0,2.08-.32,2.08-.87,0-2.01-8.84-.39-8.84-6.35,0-2.97,2.49-5.39,7.45-5.39,2.15,0,4.36.46,6.03,1.39l-1.62,3.91c-1.58-.8-3.06-1.19-4.45-1.19-1.58,0-2.08.46-2.08,1.01,0,1.92,8.84.32,8.84,6.21,0,2.92-2.49,5.39-7.45,5.39-2.67,0-5.37-.66-6.97-1.64Z"/>
  <path class="cls-2" d="M10.39,28.83h5.39v11.81h7.22v4.18h-12.61v-15.99Z"/>
  <path class="cls-2" d="M24.47,28.83h5.39v15.99h-5.39v-15.99Z"/>
  <path class="cls-2" d="M48.23,28.83v15.99h-4.43l-6.08-7.26v7.26h-5.25v-15.99h4.43l6.08,7.26v-7.26h5.25Z"/>
  <path class="cls-2" d="M61.4,36.39h4.68v6.76c-1.94,1.33-4.61,2.03-6.97,2.03-5.16,0-8.93-3.45-8.93-8.36s3.77-8.36,9.05-8.36c3.15,0,5.69,1.1,7.31,3.08l-3.45,3.04c-1-1.17-2.17-1.76-3.59-1.76-2.38,0-3.88,1.53-3.88,4s1.51,4,3.81,4c.66,0,1.3-.11,1.96-.39v-4.04Z"/>
  <path class="cls-2" d="M68.25,37.62v-8.79h5.39v8.63c0,2.44.94,3.36,2.44,3.36s2.44-.91,2.44-3.36v-8.63h5.3v8.79c0,4.8-2.88,7.56-7.79,7.56s-7.79-2.76-7.79-7.56Z"/>
  <path class="cls-2" d="M85.28,43.54l1.74-3.93c1.51.89,3.52,1.46,5.28,1.46,1.53,0,2.08-.32,2.08-.87,0-2.01-8.84-.39-8.84-6.35,0-2.97,2.49-5.39,7.45-5.39,2.15,0,4.36.46,6.03,1.39l-1.62,3.91c-1.58-.8-3.06-1.19-4.45-1.19-1.58,0-2.08.46-2.08,1.01,0,1.92,8.84.32,8.84,6.21,0,2.92-2.49,5.39-7.45,5.39-2.67,0-5.37-.66-6.97-1.64Z"/>
  <path class="cls-2" d="M104.54,33.01h-4.68v-4.18h14.76v4.18h-4.68v11.81h-5.39v-11.81Z"/>
  <path class="cls-2" d="M116,28.83h5.39v15.99h-5.39v-15.99Z"/>
  <path class="cls-2" d="M123.35,36.82c0-4.91,3.77-8.36,8.91-8.36,3.13,0,5.6,1.14,7.17,3.2l-3.4,3.04c-.94-1.19-2.06-1.87-3.49-1.87-2.24,0-3.75,1.55-3.75,4s1.51,4,3.75,4c1.44,0,2.56-.68,3.49-1.87l3.4,3.04c-1.58,2.06-4.04,3.2-7.17,3.2-5.14,0-8.91-3.45-8.91-8.36Z"/>
  <text class="cls-1" transform="translate(161.96 21.17)"><tspan x="0" y="0">&amp;</tspan></text>
</svg>