<?xml version="1.0" encoding="UTF-8"?>
<svg id="Layer_1" data-name="Layer 1" xmlns="http://www.w3.org/2000/svg" xmlns:xlink="http://www.w3.org/1999/xlink" version="1.1" viewBox="0 0 480 206.91">
  <defs>
    <style>
      .cls-1, .cls-2 {
        fill: none;
      }

      .cls-1, .cls-3 {
        stroke-width: 0px;
      }

      .cls-2 {
        stroke: #fff;
        stroke-miterlimit: 10;
      }

      .cls-4 {
        font-size: 10.56px;
        letter-spacing: .5em;
      }

      .cls-4, .cls-5 {
        font-family: Helvetica, Helvetica;
      }

      .cls-4, .cls-5, .cls-3, .cls-6 {
        fill: #fff;
      }

      .cls-5 {
        font-size: 6.73px;
        letter-spacing: .5em;
      }

      .cls-6 {
        font-family: Montserrat-Black, Montserrat;
        font-size: 22.84px;
        font-weight: 800;
      }
    </style>
    <clipPath id="clippath">
      <rect class="cls-1" x="0" width="480" height="206.22"/>
    </clipPath>
  </defs>
  <text class="cls-6" transform="translate(170.88 103.76)"><tspan x="0" y="0">LANGUAGES</tspan><tspan x="0" y="23">LINGUSTIC</tspan></text>
  <text class="cls-4" transform="translate(227.23 139.25)"><tspan x="0" y="0">2024</tspan></text>
  <text class="cls-5" transform="translate(323.75 103.11)"><tspan x="0" y="0">&amp;</tspan></text>
  <path class="cls-3" d="M148.02,139.05v-16.78h6.16v10.61h67.71v6.17h-73.87Z"/>
  <path class="cls-2" d="M160.49,67.69c1.58.77,3.02,1.61,4.56,2.16,1.47.53,1.81,1.35,1.8,2.86-.05,17.6-.02,35.21-.01,52.81,0,.32,0,.64,0,1h-6.36v-58.84Z"/>
  <path class="cls-3" d="M148.05,61.89c2.04.97,3.97,1.86,5.86,2.82.2.1.28.6.28.91.02,7.55.03,15.11.03,22.66,0,8.62,0,17.24,0,25.86,0,.35,0,.69,0,1.09h-6.16v-53.35Z"/>
</svg>