<?xml version="1.0" encoding="UTF-8"?>
<svg id="Layer_2" data-name="Layer 2" xmlns="http://www.w3.org/2000/svg" viewBox="0 0 939.8 143.6">
  <defs>
    <style>
      .cls-1 {
        fill: #fff;
        stroke-width: 0px;
      }
    </style>
  </defs>
  <g id="Layer_1-2" data-name="Layer 1">
    <path class="cls-1" d="m157.7,90.9l15.2-22.6c9.8,7.4,20.7,11.4,30.3,11.4,5.7,0,7.9-2,7.9-4.8v-.3c0-3.1-3.1-4.8-12.4-7.6-20.4-6.1-36.2-13.3-36.2-32.8v-.6C162.5,14.4,177.1.4,201.7.4c15.5,0,28.3,3.5,40,12.5l-14.7,22.9c-7.4-5.4-17.1-9.2-25.7-9.2-4.7,0-7,2-7,4.5v.3c0,3.1,3.1,4.8,13.1,8,20.9,5.7,35.6,13.7,35.6,32.5v.4c0,20.6-16,33.5-40.1,33.5-17.2.1-32.8-4.7-45.2-14.9"/>
    <polygon class="cls-1" points="249.7 2.1 324.5 2.1 324.5 28.9 280.9 28.9 280.9 40.6 321.3 40.6 321.3 65.1 280.9 65.1 280.9 77.3 325.3 77.3 325.3 104.1 249.7 104.1 249.7 2.1"/>
    <path class="cls-1" d="m385.9,66.2l-7.7-26.5-7.6,26.5h15.3ZM362,1.5h33.1l35.3,102.7h-33.4l-4.4-14.6h-28.9l-4.2,14.6h-32.8L362,1.5Z"/>
    <g>
      <path class="cls-1" d="m475.3,51.2c7,0,11.5-3.8,11.5-10.9v-.7c0-7.3-4.5-10.9-11.4-10.9h-10.4v22.6h10.3v-.1ZM433.7,2.1h42c15.8,0,26.7,3.9,33.5,10.8,6,6,9.2,13.7,9.2,24.4v.9c0,14.7-7,24.2-17.5,29.9l20.4,36.2h-35.3l-15.9-29.7h-5.1v29.7h-31.4V2.1h.1Z"/>
      <path class="cls-1" d="m523.4,54.6v-2.5c0-31.8,21.9-52.1,48.6-52.1,17.4,0,29.5,7.6,37.6,19.2l-21.3,19.5c-3.2-5.1-7.9-9.6-15.8-9.6-9.9,0-17.1,8.5-17.1,23.5v.6c0,16.2,7.7,23.8,17.2,23.8,8.2,0,12.8-4.7,16.2-9.9l21.3,18.8c-7.4,10.9-19.5,20.3-39.4,20.3-25.4,0-47.3-19.3-47.3-51.6"/>
    </g>
    <polygon class="cls-1" points="615 2.1 646.5 2.1 646.5 38.8 671.1 38.8 671.1 2.1 702.6 2.1 702.6 104.1 671.1 104.1 671.1 66.8 646.5 66.8 646.5 104.1 615 104.1 615 2.1"/>
    <path class="cls-1" d="m939.8,1.6h-228.9v102.6h228.9V1.6Zm-.6,102h-227.8V2.2h227.8v101.4Z"/>
    <g>
      <path class="cls-1" d="m725.1,35.5v-.2c0-9.6,5.9-16.2,13.7-16.2,4.3,0,7,1.6,9.5,3.9l-1.5,1.7c-2.1-2-4.6-3.5-8.1-3.5-6.4,0-11.3,5.9-11.3,14.1v.2c0,8.3,4.9,14.2,11.3,14.2,3.4,0,5.9-1.4,8.3-3.7l1.4,1.6c-2.6,2.4-5.6,4.2-9.8,4.2-7.7-.1-13.5-6.5-13.5-16.3"/>
      <path class="cls-1" d="m763.9,36.2c5.9,0,9.1-2.9,9.1-7.3v-.1c0-4.5-3.2-7.1-8.6-7.1h-8.1v14.6h7.6v-.1Zm-9.8-16.7h10.5c3.5,0,6.4,1.1,8.2,2.9,1.5,1.5,2.4,3.8,2.4,6.2v.1c0,5.1-3.4,8.2-8.1,9l9.1,13.5h-2.8l-8.8-13.1h-8.3v13.1h-2.3v-31.7h.1Z"/>
    </g>
    <polygon class="cls-1" points="782.2 19.5 801.2 19.5 801.2 21.6 784.5 21.6 784.5 34.2 799.5 34.2 799.5 36.3 784.5 36.3 784.5 49.2 801.4 49.2 801.4 51.3 782.2 51.3 782.2 19.5"/>
    <path class="cls-1" d="m826,40.4l-6.9-18.3-7,18.3h13.9Zm-8.1-21.1h2.3l12.4,32h-2.4l-3.4-8.9h-15.6l-3.4,8.9h-2.3l12.4-32Z"/>
    <polygon class="cls-1" points="842.1 21.6 832.9 21.6 832.9 19.5 853.7 19.5 853.7 21.6 844.4 21.6 844.4 51.3 842.1 51.3 842.1 21.6"/>
    <rect class="cls-1" x="859.9" y="19.5" width="2.3" height="31.7"/>
    <path class="cls-1" d="m893.8,35.6v-.3c0-8.2-4.7-14.2-11.1-14.2s-11.1,5.9-11.1,14.1v.3c0,8.2,4.7,14.1,11.1,14.1,6.4.1,11.1-5.8,11.1-14m-24.5,0v-.3c0-9.3,5.4-16.2,13.4-16.2s13.3,6.9,13.3,16.2v.3c0,9.3-5.4,16.2-13.4,16.2s-13.3-7-13.3-16.2"/>
    <polygon class="cls-1" points="902.9 19.5 905.1 19.5 923.4 46.9 923.4 19.5 925.5 19.5 925.5 51.3 923.7 51.3 905.1 23.3 905.1 51.3 902.9 51.3 902.9 19.5"/>
    <path class="cls-1" d="m725.1,82.6l3.6-5c2.2,1.8,4.7,3,7.3,3,1.8,0,2.8-.8,2.8-2v-.1c0-1.1-.8-1.7-3.9-2.8-5-1.7-8.6-3.6-8.6-8.4v-.1c0-4.9,3.7-8.3,9.5-8.3,3.6,0,6.8,1,9.6,3.3l-3.5,5.1c-1.8-1.4-4.1-2.4-6.2-2.4-1.6,0-2.4.7-2.4,1.8h0c0,1.2.8,1.8,4.2,3.1,5.1,1.6,8.3,3.7,8.3,8.3v.1c0,5.2-4,8.5-9.8,8.5-4-.1-7.8-1.4-10.9-4.1"/>
    <polygon class="cls-1" points="748.7 59.4 755.5 59.4 755.5 69.5 763.2 69.5 763.2 59.4 770.1 59.4 770.1 86.1 763.2 86.1 763.2 75.8 755.5 75.8 755.5 86.1 748.7 86.1 748.7 59.4"/>
    <path class="cls-1" d="m791.1,73v-.4c0-4.6-2.2-7.5-5.4-7.5s-5.4,2.8-5.4,7.4v.4c0,4.6,2.2,7.5,5.4,7.5,3.2,0,5.4-2.8,5.4-7.4m-17.8.1v-.6c0-8,5.2-13.7,12.4-13.7s12.4,5.6,12.4,13.6v.6c0,8-5.2,13.7-12.4,13.7s-12.4-5.6-12.4-13.6"/>
    <polygon class="cls-1" points="798.6 59.4 805.8 59.4 809.5 74.9 813.7 59.3 819.7 59.3 823.9 74.9 827.6 59.4 834.7 59.4 827.2 86.3 820.9 86.3 816.6 71.5 812.3 86.3 806 86.3 798.6 59.4"/>
    <path class="cls-1" d="m835.2,73v-.5c0-8.2,5.4-13.6,12.4-13.6,4.2,0,7.1,1.7,9.2,4.3l-4.4,4.7c-1.2-1.5-2.7-2.6-4.8-2.6-3.1,0-5.4,2.8-5.4,7.3v.2c0,4.8,2.4,7.4,5.4,7.4,2.1,0,3.5-1.1,4.9-2.7l4.5,4.4c-2.2,2.7-5,4.7-9.7,4.7-6.9,0-12.1-5.2-12.1-13.6"/>
    <path class="cls-1" d="m872.8,75.8l-2.5-7.8-2.4,7.8h4.9Zm-5.9-16.6h7l9.4,26.9h-7.2l-1.6-4.8h-8.4l-1.5,4.8h-7.1l9.4-26.9Z"/>
    <path class="cls-1" d="m883.4,82.6l3.6-5c2.2,1.8,4.7,3,7.3,3,1.8,0,2.8-.8,2.8-2v-.1c0-1.1-.8-1.7-3.9-2.8-5-1.7-8.6-3.6-8.6-8.4v-.1c0-4.9,3.7-8.3,9.5-8.3,3.6,0,6.8,1,9.6,3.3l-3.5,5.1c-1.8-1.4-4.1-2.4-6.2-2.4-1.6,0-2.4.7-2.4,1.8h0c0,1.2.8,1.8,4.2,3.1,5.1,1.6,8.3,3.7,8.3,8.3v.1c0,5.2-4,8.5-9.8,8.5-4-.1-7.8-1.4-10.9-4.1"/>
    <polygon class="cls-1" points="907 59.4 925.4 59.4 925.4 65.4 913.8 65.4 913.8 69.8 924.2 69.8 924.2 75.5 913.8 75.5 913.8 80.1 925.5 80.1 925.5 86.1 907 86.1 907 59.4"/>
    <g>
      <path class="cls-1" d="m0,100.1c12.5-.2,16.5-1.3,16.5-8.6V16.6C16.5,9.9,14.1,6.9,0,6.1v-1.7l32.6-1.1v24.3C39.3,13.6,50.4,2.3,61.8,2.3c9.9,0,14.6,6,14.6,13.1,0,6.4-4.7,11.4-10.5,11.4-6.4,0-10.9-4.3-10.9-10.7,0-2.6.6-4.9,2.1-7.1-9.7,1.3-17,9.4-24.3,22.8v59.9c0,7.3,4.3,8.4,18.9,8.6v1.9H0v-2.1h0Z"/>
      <path class="cls-1" d="m87.6,51.8c44.7-.6,51.1-19.5,51.1-33.1,0-8.2-4.1-13.3-12-13.3-18.1,0-33.9,23-39.1,46.4m-.6,2.7c-.6,4.3-1.1,8.4-1.1,12.5,0,21.5,7.1,31.3,23.4,31.3,12.7,0,23.4-8.4,31.1-18.2l2.1,1.9c-12,15-25.3,22.1-40.4,22.1-16.7,0-33.5-9.7-33.5-36.1,0-32.2,25.8-65.9,58.8-65.9,17,0,26.4,8.8,26.4,21,.1,16.8-19.8,31.7-66.8,31.4"/>
      <path class="cls-1" d="m928.2,140.3h11.6v-1.3h-10.2v-7.8h9.1v-1.3h-9.1v-7.6h10.1v-1.3h-11.4v19.3h-.1Zm-19.6-9.1v-8.8h4.9c3.2,0,5.2,1.6,5.2,4.3v.1c0,2.7-2,4.4-5.5,4.4h-4.6Zm-1.4,9.1h1.4v-7.9h5l5.3,7.9h1.7l-5.5-8.1c2.8-.5,4.9-2.3,4.9-5.4v-.1c0-1.5-.5-2.8-1.5-3.7-1.1-1.1-2.8-1.7-4.9-1.7h-6.3v19h-.1Zm-14.5,0h1.4v-17.8h5.6v-1.3h-12.5v1.3h5.6v17.8h-.1Zm-26.9,0h1.3v-16.8l11.2,16.8h1.1v-19.1h-1.3v16.5l-11-16.5h-1.3v19.1h0Zm-19.5,0h11.6v-1.3h-10.2v-7.8h9.1v-1.3h-9.1v-7.6h10.1v-1.3h-11.4v19.3h-.1Zm-13.4.3c2.6,0,4.4-1.1,5.9-2.5l-.8-1c-1.4,1.4-3,2.2-5,2.2-3.8,0-6.8-3.5-6.8-8.5v-.1c0-5,3-8.5,6.8-8.5,2.1,0,3.6.9,4.9,2.1l.9-1c-1.5-1.3-3.1-2.3-5.7-2.3-4.7,0-8.3,4-8.3,9.8v.1c0,5.8,3.5,9.7,8.1,9.7m-36.2-.3h10.6v-1.3h-9.2v-17.8h-1.4v19.1Zm-19.9-6.5l4.2-11,4.2,11h-8.4Zm-3.9,6.5h1.4l2-5.3h9.4l2,5.3h1.5l-7.5-19.2h-1.4l-7.4,19.2Zm-18.2-9.1v-8.8h4.9c3.2,0,5.2,1.6,5.2,4.3v.1c0,2.7-2,4.4-5.5,4.4h-4.6Zm-1.3,9.1h1.4v-7.9h5l5.3,7.9h1.7l-5.5-8.1c2.8-.5,4.9-2.3,4.9-5.4v-.1c0-1.5-.5-2.8-1.5-3.7-1.1-1.1-2.8-1.7-4.9-1.7h-6.3v19h-.1Zm-15.5.3c4,0,6.7-2.6,6.7-7.4v-12h-1.4v12.1c0,4-2.1,6.1-5.3,6.1-3.4,0-5.4-2.2-5.4-6.1v-12h-1.3v12.1c0,4.6,2.8,7.2,6.7,7.2m-21-.3h1.4v-17.8h5.6v-1.3h-12.5v1.3h5.6v17.8h-.1Zm-20.5,0h10.6v-1.3h-9.3v-17.8h-1.4v19.1h.1Zm-15.4.3c4,0,6.7-2.6,6.7-7.4v-12h-1.4v12.1c0,4-2.1,6.1-5.3,6.1-3.4,0-5.4-2.2-5.4-6.1v-12h-1.3v12.1c0,4.6,2.7,7.2,6.7,7.2m-19.9,0c2.6,0,4.4-1.1,5.9-2.5l-.8-1c-1.4,1.4-3,2.2-5,2.2-3.8,0-6.8-3.5-6.8-8.5v-.1c0-5,3-8.5,6.8-8.5,2.1,0,3.6.9,4.9,2.1l.9-1c-1.5-1.3-3.1-2.3-5.7-2.3-4.7,0-8.3,4-8.3,9.8v.1c0,5.8,3.5,9.7,8.1,9.7m-31.8,0c3.3,0,5.7-2.1,5.7-5v-.1c0-2.4-1.2-4-5.3-5.5-3.8-1.3-4.7-2.5-4.7-4.3v-.1c0-1.9,1.6-3.5,4.1-3.5,1.7,0,3.3.6,4.8,1.9l.8-1.1c-1.7-1.4-3.4-2.1-5.6-2.1-3.2,0-5.5,2.1-5.5,4.8v.1c0,2.5,1.3,4,5.5,5.5,3.7,1.3,4.6,2.5,4.6,4.3v.1c0,2.1-1.8,3.7-4.3,3.7-2.2,0-3.9-.8-5.6-2.5l-.9,1.1c1.9,1.9,4,2.7,6.4,2.7m-27.8-.3h1.3v-16.8l11.2,16.8h1.1v-19.1h-1.3v16.5l-11-16.5h-1.3v19.1h0Zm-10.5,0h1.4v-19.1h-1.4v19.1Zm-20.1-6.5l4.2-11,4.2,11h-8.4Zm-3.9,6.5h1.4l2-5.3h9.4l2,5.3h1.5l-7.4-19.2h-1.4l-7.5,19.2Zm-11.2,0h1.4v-17.8h5.6v-1.3h-12.5v1.3h5.6v17.8h-.1Zm-26.8,0h1.3v-16.8l11.2,16.8h1.1v-19.1h-1.3v16.5l-11-16.5h-1.3v19.1h0Zm-15.5.3c4,0,6.7-2.6,6.7-7.4v-12h-1.4v12.1c0,4-2.1,6.1-5.3,6.1-3.4,0-5.4-2.2-5.4-6.1v-12h-1.3v12.1c0,4.6,2.8,7.2,6.7,7.2m-22.7-1.2c-3.8,0-6.7-3.6-6.7-8.5v-.2c0-4.9,2.8-8.5,6.7-8.5s6.7,3.6,6.7,8.5v.2c-.1,4.9-2.9,8.5-6.7,8.5m0,1.2c4.8,0,8.1-4.2,8.1-9.8v-.2c0-5.6-3.2-9.7-8-9.7s-8.1,4.2-8.1,9.8v.2c-.1,5.6,3.2,9.7,8,9.7m-31.9-.3h1.3v-16.6l6.4,11.1h.1l6.4-11.1v16.6h1.4v-19.1h-1.4l-6.4,11.2-6.4-11.2h-1.4v19.1Zm-30.1,0h11.6v-1.3h-10.2v-7.8h9.1v-1.3h-9.1v-7.6h10.1v-1.3h-11.4v19.3h-.1Zm-15.4.3c4,0,6.7-2.6,6.7-7.4v-12h-1.4v12.1c0,4-2.1,6.1-5.3,6.1-3.4,0-5.4-2.2-5.4-6.1v-12h-1.3v12.1c0,4.6,2.7,7.2,6.7,7.2m-24.3-.3h10.6v-1.3h-9.3v-17.8h-1.4v19.1h.1Zm-9.3-5.2h0c0,2.5-2,3.9-5.1,3.9h-5v-7.8h4.8c3.4.1,5.3,1.5,5.3,3.9m-.9-9c0,2.5-1.9,4-4.7,4h-4.6v-7.6h4.8c2.9,0,4.5,1.4,4.5,3.6h0Zm-10.7,14.2h6.4c4,0,6.5-2,6.5-5.1v-.1c0-2.6-1.9-4-4.1-4.6,1.6-.6,3.3-1.9,3.3-4.6v-.1c0-1.3-.4-2.3-1.2-3.1-1-1-2.6-1.6-4.6-1.6h-6.2v19.2h-.1Zm-21.3,3.3h1.1v-24.8h-1.1v24.8Zm-30.8-12.4v-8.8h4.9c3.2,0,5.2,1.6,5.2,4.3v.1c0,2.7-2,4.4-5.5,4.4h-4.6Zm-1.4,9.1h1.4v-7.9h5l5.3,7.9h1.7l-5.5-8.1c2.8-.5,4.9-2.3,4.9-5.4v-.1c0-1.5-.5-2.8-1.5-3.7-1.1-1.1-2.8-1.7-4.9-1.7h-6.3v19h-.1Zm-19.5,0h11.6v-1.3h-10.2v-7.8h9.1v-1.3h-9.1v-7.6h10.1v-1.3h-11.4v19.3h-.1Zm-9.3-5.2h0c0,2.5-2,3.9-5.1,3.9h-5v-7.8h4.8c3.4.1,5.3,1.5,5.3,3.9m-.8-9c0,2.5-1.9,4-4.7,4h-4.6v-7.6h4.8c2.8,0,4.5,1.4,4.5,3.6h0Zm-10.7,14.2h6.4c4,0,6.6-2,6.6-5.1v-.1c0-2.6-1.9-4-4.1-4.6,1.6-.6,3.3-1.9,3.3-4.6v-.1c0-1.3-.4-2.3-1.2-3.1-1-1-2.6-1.6-4.6-1.6h-6.2v19.2h-.2Zm-24.6,0h1.3v-16.6l6.4,11.1h.1l6.4-11.1v16.6h1.4v-19.1h-1.4l-6.4,11.2-6.4-11.2h-1.4v19.1h0Zm-19.5,0h11.6v-1.3h-10.2v-7.8h9.1v-1.3h-9.1v-7.6h10.1v-1.3h-11.4v19.3h-.1Zm-15.9.2h1.3l7.1-19.2h-1.4l-6.2,17.4-6.2-17.4h-1.5l6.9,19.2Zm-20.9-1.1c-3.8,0-6.7-3.6-6.7-8.5v-.2c0-4.9,2.8-8.5,6.7-8.5s6.7,3.6,6.7,8.5v.2c0,4.9-2.9,8.5-6.7,8.5m0,1.2c4.8,0,8-4.2,8-9.8v-.2c0-5.6-3.2-9.7-8-9.7s-8.1,4.2-8.1,9.8v.2c0,5.6,3.3,9.7,8.1,9.7m-29.9-.3h1.3v-16.8l11.2,16.8h1.1v-19.1h-1.3v16.5l-11-16.5h-1.3v19.1Zm-27.3,0h1.4l7.4-18.1v-1h-10.8v1.3h9.3l-7.3,17.8Zm-11.5,0h1.3v-19.2h-1.1l-3.7,1.5.2,1.2,3.2-1.2v17.7h.1Zm-27.8,0h1.4v-7.8l6.9-11.3h-1.6l-6,10-6-10h-1.6l6.9,11.3v7.8h0Zm-22.5-6.5l4.2-11,4.2,11h-8.4Zm-3.9,6.5h1.4l2-5.3h9.4l2,5.3h1.5l-7.5-19.2h-1.4l-7.4,19.2Zm-14.8-17.8c4.6,0,7.6,3.4,7.6,8.2v.2c0,4.8-3,8.2-7.6,8.2h-3.7v-16.6h3.7Zm-5,17.8h5.1c5.3,0,8.9-3.9,8.9-9.5v-.2c0-5.6-3.7-9.4-8.9-9.4h-5.1v19.1Zm-10.5,0h1.4v-19.1h-1.4v19.1Zm-19.8-9.1v-8.8h4.9c3.2,0,5.2,1.6,5.2,4.3v.1c0,2.7-2,4.4-5.5,4.4h-4.6Zm-1.4,9.1h1.4v-7.9h5l5.3,7.9h1.7l-5.5-8.1c2.8-.5,4.9-2.3,4.9-5.4v-.1c0-1.5-.5-2.8-1.5-3.7-1.1-1.1-2.8-1.7-4.9-1.7h-6.3v19h-.1ZM0,140.3h1.4v-8.7h8.9v-1.3H1.4v-7.9h9.9v-1.3H0v19.2Z"/>
    </g>
  </g>
</svg>