<?xml version="1.0" encoding="UTF-8"?>
<svg id="Layer_2" data-name="Layer 2" xmlns="http://www.w3.org/2000/svg" viewBox="0 0 144.5 201.3">
  <defs>
    <style>
      .cls-1 {
        fill: #fff;
        stroke-width: 0px;
      }
    </style>
  </defs>
  <g id="Layer_1-2" data-name="Layer 1">
    <path class="cls-1" d="m0,125.9l4-6c2.6,2,5.5,3,8,3,1.5,0,2.1-.5,2.1-1.3v-.1c0-.8-.8-1.3-3.3-2-5.4-1.6-9.6-3.5-9.6-8.7v-.2c0-5.1,3.9-8.8,10.4-8.8,4.1,0,7.5.9,10.6,3.3l-3.9,6.1c-2-1.4-4.5-2.4-6.8-2.4-1.2,0-1.9.5-1.9,1.2v.1c0,.8.8,1.3,3.5,2.1,5.5,1.5,9.4,3.6,9.4,8.6v.1c0,5.5-4.3,8.9-10.6,8.9-4.5.1-8.6-1.2-11.9-3.9"/>
    <polygon class="cls-1" points="24.4 102.3 44.2 102.3 44.2 109.4 32.7 109.4 32.7 112.5 43.4 112.5 43.4 119 32.7 119 32.7 122.3 44.4 122.3 44.4 129.4 24.4 129.4 24.4 102.3"/>
    <path class="cls-1" d="m60.5,119.4l-2.1-7-2,7h4.1Zm-6.3-17.2h8.8l9.4,27.2h-8.9l-1.2-3.9h-7.7l-1.1,3.9h-8.7l9.4-27.2Z"/>
    <g>
      <path class="cls-1" d="m84.2,115.4c1.9,0,3.1-1,3.1-2.9v-.2c0-1.9-1.2-2.9-3-2.9h-2.7v6h2.6Zm-11-13.1h11.1c4.2,0,7.1,1,8.9,2.9,1.6,1.6,2.4,3.6,2.4,6.5v.2c0,3.9-1.9,6.4-4.6,7.9l5.4,9.6h-9.4l-4.2-7.9h-1.4v7.9h-8.3v-27.1h.1Z"/>
      <path class="cls-1" d="m97,116.3v-.7c0-8.4,5.8-13.8,12.9-13.8,4.6,0,7.8,2,10,5.1l-5.6,5.2c-.8-1.4-2.1-2.6-4.2-2.6-2.6,0-4.5,2.2-4.5,6.2v.2c0,4.3,2,6.3,4.6,6.3,2.2,0,3.4-1.2,4.3-2.6l5.6,5c-2,2.9-5.2,5.4-10.4,5.4-6.9-.1-12.7-5.2-12.7-13.7"/>
    </g>
    <polygon class="cls-1" points="121.3 102.3 129.6 102.3 129.6 112.1 136.2 112.1 136.2 102.3 144.5 102.3 144.5 129.4 136.2 129.4 136.2 119.5 129.6 119.5 129.6 129.4 121.3 129.4 121.3 102.3"/>
    <path class="cls-1" d="m144.5,136.6H0v64.7h144.5v-64.7Zm-.4,64.4H.4v-64h143.8v64h-.1Z"/>
    <g>
      <path class="cls-1" d="m9,158.1v-.1c0-6,3.8-10.2,8.7-10.2,2.7,0,4.4,1,6,2.4l-.9,1.1c-1.3-1.3-2.9-2.2-5.1-2.2-4,0-7.2,3.7-7.2,8.9v.1c0,5.3,3.1,9,7.2,9,2.1,0,3.8-.9,5.3-2.3l.9,1c-1.6,1.5-3.5,2.7-6.2,2.7-5-.2-8.7-4.3-8.7-10.4"/>
      <path class="cls-1" d="m33.5,158.5c3.7,0,5.8-1.8,5.8-4.6v-.1c0-2.9-2-4.5-5.4-4.5h-5.1v9.2h4.7Zm-6.2-10.5h6.6c2.2,0,4.1.7,5.2,1.8,1,1,1.5,2.4,1.5,3.9v.1c0,3.2-2.1,5.2-5.1,5.7l5.8,8.5h-1.7l-5.6-8.2h-5.2v8.2h-1.4v-20h-.1Z"/>
    </g>
    <polygon class="cls-1" points="45 148 57 148 57 149.3 46.5 149.3 46.5 157.2 56 157.2 56 158.6 46.5 158.6 46.5 166.7 57.2 166.7 57.2 168 45 168 45 148"/>
    <path class="cls-1" d="m72.7,161.1l-4.4-11.5-4.4,11.5h8.8Zm-5.1-13.3h1.4l7.8,20.2h-1.5l-2.1-5.6h-9.8l-2.1,5.6h-1.5l7.8-20.2Z"/>
    <polygon class="cls-1" points="82.9 149.3 77 149.3 77 148 90.2 148 90.2 149.3 84.3 149.3 84.3 168 82.9 168 82.9 149.3"/>
    <rect class="cls-1" x="94.1" y="148" width="1.4" height="20"/>
    <path class="cls-1" d="m115.5,158.1v-.2c0-5.2-3-8.9-7-8.9s-7,3.8-7,8.9v.2c0,5.2,3,8.9,7,8.9s7-3.7,7-8.9m-15.5,0v-.2c0-5.8,3.4-10.2,8.5-10.2s8.4,4.4,8.4,10.2v.2c0,5.8-3.4,10.2-8.4,10.2s-8.5-4.4-8.5-10.2"/>
    <polygon class="cls-1" points="121.2 148 122.6 148 134.1 165.2 134.1 148 135.5 148 135.5 168 134.4 168 122.6 150.3 122.6 168 121.2 168 121.2 148"/>
    <path class="cls-1" d="m9,187.8l2.3-3.2c1.4,1.1,3,1.9,4.6,1.9,1.1,0,1.7-.5,1.7-1.2h0c0-.7-.5-1.1-2.5-1.8-3.2-1.1-5.4-2.2-5.4-5.3v-.1c0-3.1,2.3-5.2,6-5.2,2.3,0,4.3.6,6,2.1l-2.2,3.2c-1.2-.9-2.6-1.5-3.9-1.5-1,0-1.5.5-1.5,1.1h0c0,.7.5,1.1,2.7,1.9,3.2,1,5.2,2.3,5.2,5.2h0c0,3.3-2.5,5.3-6.2,5.3-2.4.1-4.9-.7-6.8-2.4"/>
    <polygon class="cls-1" points="23.9 173.1 28.2 173.1 28.2 179.5 33 179.5 33 173.1 37.4 173.1 37.4 190 33 190 33 183.5 28.2 183.5 28.2 190 23.9 190 23.9 173.1"/>
    <path class="cls-1" d="m50.6,181.7v-.3c0-2.9-1.4-4.7-3.4-4.7s-3.4,1.8-3.4,4.7v.3c0,2.9,1.4,4.7,3.4,4.7,2.1,0,3.4-1.8,3.4-4.7m-11.2.1v-.4c0-5.1,3.3-8.6,7.8-8.6s7.8,3.5,7.8,8.6v.4c0,5.1-3.3,8.6-7.8,8.6-4.5-.1-7.8-3.6-7.8-8.6"/>
    <polygon class="cls-1" points="55.4 173.1 59.9 173.1 62.3 182.9 65 173.1 68.7 173.1 71.3 182.9 73.7 173.1 78.2 173.1 73.5 190.1 69.5 190.1 66.8 180.8 64.1 190.1 60.1 190.1 55.4 173.1"/>
    <path class="cls-1" d="m78.5,181.7v-.3c0-5.2,3.4-8.6,7.8-8.6,2.7,0,4.5,1.1,5.8,2.7l-2.8,3c-.8-.9-1.7-1.6-3-1.6-2,0-3.4,1.8-3.4,4.6v.1c0,3,1.5,4.7,3.4,4.7,1.4,0,2.2-.7,3.1-1.7l2.8,2.8c-1.4,1.7-3.2,2.9-6.1,2.9-4.3,0-7.6-3.3-7.6-8.6"/>
    <path class="cls-1" d="m102.2,183.5l-1.6-4.9-1.5,4.9h3.1Zm-3.7-10.5h4.4l5.9,17h-4.6l-1-3h-5.2l-1,3h-4.5l6-17Z"/>
    <path class="cls-1" d="m108.9,187.8l2.3-3.2c1.4,1.1,3,1.9,4.6,1.9,1.1,0,1.7-.5,1.7-1.2h0c0-.7-.5-1.1-2.5-1.8-3.2-1.1-5.4-2.2-5.4-5.3v-.1c0-3.1,2.3-5.2,6-5.2,2.3,0,4.3.6,6,2.1l-2.2,3.2c-1.2-.9-2.6-1.5-3.9-1.5-1,0-1.5.5-1.5,1.1h0c0,.7.5,1.1,2.7,1.9,3.2,1,5.2,2.3,5.2,5.2h0c0,3.3-2.5,5.3-6.2,5.3-2.4.1-4.8-.7-6.8-2.4"/>
    <polygon class="cls-1" points="123.8 173.1 135.4 173.1 135.4 176.9 128.1 176.9 128.1 179.7 134.7 179.7 134.7 183.3 128.1 183.3 128.1 186.2 135.5 186.2 135.5 190 123.8 190 123.8 173.1"/>
    <g>
      <path class="cls-1" d="m0,91.9c11.7-.2,15.5-1.2,15.5-8.1V13.5C15.5,7.3,13.3,4.4,0,3.6v-1.6l30.6-1v22.8C36.9,10.7,47.4,0,58,0c9.3,0,13.7,5.6,13.7,12.3,0,6-4.4,10.7-9.9,10.7-6,0-10.3-4-10.3-10.1,0-2.4.6-4.6,2-6.7-9.1,1.2-15.9,8.9-22.8,21.4v56.2c0,6.9,4,7.9,17.7,8.1v1.8H0v-1.8Z"/>
      <path class="cls-1" d="m82.2,46.6c41.9-.6,48-18.3,48-31,0-7.7-3.8-12.5-11.3-12.5-16.9-.1-31.8,21.5-36.7,43.5m-.6,2.6c-.6,4-1,7.9-1,11.7,0,20.2,6.7,29.4,22,29.4,11.9,0,22-7.9,29.2-17.1l2,1.8c-11.3,14.1-23.8,20.8-37.9,20.8-15.7,0-31.4-9.1-31.4-33.9C64.5,31.7,88.7,0,119.7,0c15.9,0,24.8,8.3,24.8,19.8,0,15.7-18.7,29.6-62.9,29.4"/>
    </g>
  </g>
</svg>