<?xml version="1.0" encoding="UTF-8"?>
<svg id="Logo" xmlns="http://www.w3.org/2000/svg" viewBox="0 0 75.4 52.29">
  <defs>
    <style>
      .cls-1 {
        fill: #903;
      }

      .cls-1, .cls-2 {
        stroke-width: 0px;
      }

      .cls-2 {
        fill: #000;
      }

      .cls-3 {
        fill: none;
        stroke: #000;
        stroke-miterlimit: 10;
        stroke-width: .43px;
      }
    </style>
  </defs>
  <g>
    <g>
      <path class="cls-2" d="M16.2,12.12v-2.9c0-.26-.15-.38-.76-.4v-.15h2.13v.15c-.64.02-.7.13-.7.4v2.75c0,.95.62,1.29,1.4,1.29.37,0,.68-.12.9-.34.25-.25.38-.53.38-1.05v-2.08c0-.66-.18-.89-.87-.99v-.13h1.83v.13c-.64.11-.74.33-.74.99v2.22c0,.83-.6,1.51-1.77,1.51s-1.79-.54-1.79-1.4Z"/>
      <path class="cls-2" d="M21.91,9.38h0v2.9c0,.67.11.89.81.99v.14h-1.82v-.14c.65-.11.79-.32.79-.99v-2.83c0-.34-.2-.62-.79-.64v-.15h1.34l2.73,3.71h0v-2.59c0-.66-.18-.89-.87-.99v-.13h1.84v.13c-.65.11-.74.33-.74.99v3.74h-.22l-3.06-4.14Z"/>
      <path class="cls-2" d="M26.4,13.25c.62-.02.77-.14.77-.4v-3.63c0-.26-.15-.38-.77-.4v-.15h2.2v.15c-.62.02-.77.14-.77.4v3.63c0,.26.15.38.77.4v.16h-2.2v-.16Z"/>
      <path class="cls-2" d="M29.81,9.42c-.15-.41-.27-.52-.8-.62v-.14h2.1v.15c-.64.04-.74.17-.61.51l1.18,3.32h.03l1.1-2.89c.25-.67.15-.86-.49-.96v-.13h1.64v.13c-.48.1-.65.33-.92,1.03l-1.46,3.71h-.24l-1.54-4.12Z"/>
      <path class="cls-2" d="M34.25,13.25c.61-.02.76-.14.76-.4v-3.63c0-.26-.15-.38-.76-.4v-.15h3.86l.02,1.4h-.15c-.29-.85-.53-1.21-1.33-1.21h-.97v1.98h.43c.55,0,.8-.12.98-.87h.14v1.95h-.14c-.18-.75-.43-.88-.98-.88h-.43v2.16h.97c.94,0,1.25-.43,1.56-1.32h.15s-.04,1.52-.04,1.52h-4.07v-.16Z"/>
      <path class="cls-2" d="M40.43,12.85c0,.27.11.38.75.4v.16h-2.17v-.16c.61-.02.76-.14.76-.4v-3.63c0-.26-.15-.38-.76-.4v-.15h2c1.42,0,1.91.53,1.91,1.15,0,.59-.37,1.03-1.33,1.21v.02c.94.06,1.1.46,1.2,1.09l.08.48c.08.53.23.62.79.64v.15c-.13.04-.33.06-.47.06-.83,0-.97-.23-1.04-.88l-.06-.6c-.07-.69-.31-.85-1.09-.85h-.57v1.72ZM41.03,10.93c.94,0,1.15-.43,1.15-1.1,0-.62-.3-.97-1.23-.97h-.53v2.08h.6Z"/>
      <path class="cls-2" d="M44.18,11.93h.16c.37.86.82,1.39,1.51,1.39s1.04-.49,1.04-.91c0-.59-.4-.8-1.27-1.11-.65-.23-1.35-.42-1.35-1.3s.7-1.44,1.59-1.44c.4,0,.74.09.96.18l.22-.22h.12v1.44h-.15c-.28-.77-.7-1.21-1.27-1.21-.48,0-.89.32-.89.88s.43.76,1.21,1.02c.65.22,1.33.44,1.33,1.33,0,.72-.42,1.54-1.61,1.54-.39,0-.81-.11-1.08-.25l-.39.27h-.13v-1.61Z"/>
      <path class="cls-2" d="M48.08,13.25c.62-.02.77-.14.77-.4v-3.63c0-.26-.15-.38-.77-.4v-.15h2.2v.15c-.62.02-.77.14-.77.4v3.63c0,.26.15.38.77.4v.16h-2.2v-.16Z"/>
      <path class="cls-2" d="M51.74,13.25c.62-.02.81-.14.81-.4v-3.99h-.34c-.6,0-.89.4-1.23,1.26h-.15s.04-1.45.04-1.45h4.05l.04,1.44h-.15c-.31-.8-.62-1.25-1.23-1.25h-.35v3.99c0,.26.19.38.81.4v.16h-2.29v-.16Z"/>
      <path class="cls-2" d="M58.71,9.61c.32-.55.32-.73-.34-.82v-.13h1.61v.13c-.43.08-.63.21-.99.81l-1.02,1.71s0,1.53,0,1.53c0,.26.14.38.77.4v.16h-2.21v-.16c.63-.02.77-.14.77-.4v-1.43l-1.22-2.11c-.18-.32-.32-.41-.74-.5v-.14h2.04v.15c-.65.04-.7.2-.53.52l.98,1.75.86-1.47Z"/>
    </g>
    <g>
      <path class="cls-1" d="M0,.08h1.4l1.08,4.22L3.66.06h1.15l1.18,4.24L7.06.08h1.37l-1.83,6.45h-1.22l-1.17-4.08-1.17,4.08h-1.21L0,.08Z"/>
      <path class="cls-1" d="M9.11.08h4.13v1.2h-2.81v1.38h2.47v1.2h-2.47v1.43h2.85v1.2h-4.17V.08Z"/>
      <path class="cls-1" d="M13.82,5.63l.79-.98c.43.38.95.72,1.59.72.51,0,.82-.26.82-.63h0c0-.33-.18-.53-1.1-.88-1.14-.44-1.84-.87-1.84-1.97v-.02c0-1.12.86-1.88,2.1-1.88.75,0,1.48.26,2.07.79l-.74,1.01c-.4-.33-.87-.6-1.37-.6-.46,0-.74.23-.74.56h0c0,.38.22.55,1.22.96,1.12.44,1.72.92,1.72,1.91v.02c0,1.19-.91,1.92-2.15,1.92-.82,0-1.67-.28-2.37-.94Z"/>
      <path class="cls-1" d="M20.37,1.31h-1.61V.08h4.54v1.23h-1.61v5.19h-1.32V1.31Z"/>
      <path class="cls-1" d="M23.98.08h4.13v1.2h-2.81v1.38h2.47v1.2h-2.47v1.43h2.85v1.2h-4.17V.08Z"/>
      <path class="cls-1" d="M29.01.08h2.41c.74,0,1.34.21,1.74.61.35.35.54.85.54,1.48v.04c0,.97-.49,1.59-1.19,1.9l1.37,2.38h-1.52l-1.18-2.11h-.83v2.11h-1.33V.08ZM31.32,3.22c.68,0,1.04-.38,1.04-.96h0c0-.65-.39-.97-1.07-.97h-.95v1.93h.98Z"/>
      <path class="cls-1" d="M34.66.08h1.22l2.46,3.74V.08h1.3v6.41h-1.14l-2.54-3.88v3.88h-1.3V.08Z"/>
      <path class="cls-1" d="M42.5,5.63l.79-.98c.43.38.95.72,1.59.72.51,0,.82-.26.82-.63h0c0-.33-.18-.53-1.1-.88-1.14-.44-1.84-.87-1.84-1.97v-.02c0-1.12.86-1.88,2.1-1.88.75,0,1.48.26,2.07.79l-.74,1.01c-.4-.33-.87-.6-1.37-.6-.46,0-.74.23-.74.56h0c0,.38.22.55,1.22.96,1.12.44,1.72.92,1.72,1.91v.02c0,1.19-.91,1.92-2.15,1.92-.82,0-1.67-.28-2.37-.94Z"/>
      <path class="cls-1" d="M49.28,3.97L47.19.08h1.5l1.26,2.52,1.27-2.52h1.47l-2.09,3.87v2.55h-1.33v-2.53Z"/>
      <path class="cls-1" d="M53.36.08h2.07c1.86,0,3.06,1.28,3.06,3.16v.08c0,1.88-1.2,3.17-3.06,3.17h-2.07V.08ZM54.69,1.28v4.01h.73c1.01,0,1.7-.71,1.7-1.98v-.05c0-1.27-.69-1.99-1.7-1.99h-.73Z"/>
      <path class="cls-1" d="M59.26.08h1.22l2.46,3.74V.08h1.3v6.41h-1.14l-2.54-3.88v3.88h-1.3V.08Z"/>
      <path class="cls-1" d="M65.26.08h4.13v1.2h-2.81v1.38h2.47v1.2h-2.47v1.43h2.85v1.2h-4.17V.08Z"/>
      <path class="cls-1" d="M71.99,3.97l-2.09-3.88h1.5l1.26,2.52,1.27-2.52h1.47l-2.09,3.87v2.55h-1.33v-2.53Z"/>
    </g>
    <path class="cls-1" d="M33.35,18.77v6.45c0,2.37,4.28,4.27,4.29,4.27,0,0,4.29-1.9,4.29-4.27v-6.45h-8.57ZM39.64,26.49c-.33-.18-.71-.32-1.12-.4l-.89-3.71-.88,3.71c-.42.08-.8.22-1.12.4l-1.42-6h.89l1.08,4.5,1.07-4.5h.76l1.1,4.5,1.06-4.5h.89l-1.42,6Z"/>
  </g>
  <g>
    <path class="cls-2" d="M16.34,43.89c.49-.02.61-.07.61-.25v-2.98c0-.18-.12-.23-.61-.25v-.19h1.73v.19c-.52.02-.56.06-.56.25v1.31h1.81v-1.31c0-.19-.04-.23-.56-.25v-.19h1.73v.19c-.49.02-.61.07-.61.25v2.98c0,.18.12.23.61.25v.19h-1.73v-.19c.52-.02.56-.06.56-.25v-1.45h-1.81v1.45c0,.19.04.23.56.25v.19h-1.73v-.19Z"/>
    <path class="cls-2" d="M21.26,43.31v-1.49c0-.18-.09-.22-.43-.23v-.18l.93-.03v1.73c0,.52.21.66.59.66.26,0,.44-.09.62-.2v-1.75c0-.18-.11-.22-.43-.23v-.18l.93-.03v2.32c0,.15.09.2.43.21v.18h-.91v-.34c-.29.21-.63.39-1.01.39-.42,0-.7-.29-.7-.81Z"/>
    <path class="cls-2" d="M26.17,43.9c.29,0,.34-.06.34-.21v-1.3c0-.52-.21-.67-.56-.67-.26,0-.44.12-.6.24v1.73c0,.14.04.2.33.21v.18h-1.25v-.18c.34,0,.43-.06.43-.21v-1.82c0-.18-.09-.28-.43-.29v-.18l.91-.02v.4c.31-.22.62-.42,1.01-.42.3,0,.53.18.62.5.35-.3.69-.5,1.07-.5.4,0,.64.29.64.81v1.52c0,.14.09.2.43.21v.18h-1.26v-.18c.29,0,.34-.06.34-.21v-1.3c0-.52-.19-.67-.54-.67-.2,0-.4.11-.64.3,0,.08.01.13.01.19v1.48c0,.14.05.2.39.21v.18h-1.22v-.18Z"/>
    <path class="cls-2" d="M29.63,43.5c0-.23.11-.47.36-.61.45-.25,1.14-.34,1.23-.41v-.17c0-.59-.16-.77-.54-.77-.19,0-.3.05-.4.15.05.1.07.19.07.28,0,.18-.11.32-.31.32-.19,0-.29-.15-.29-.32,0-.34.45-.61,1.01-.61.61,0,.96.28.96.84v1.34c0,.29.06.36.45.31l.02.14c-.21.08-.36.11-.54.11-.31,0-.36-.13-.4-.45h-.02c-.23.26-.53.46-.88.46-.49,0-.71-.3-.71-.62ZM31.22,43.44v-.77c-.84.18-1.04.3-1.04.69,0,.25.13.44.44.44.23,0,.47-.18.6-.36Z"/>
    <path class="cls-2" d="M32.67,43.9c.34,0,.43-.06.43-.21v-1.82c0-.18-.09-.28-.43-.29v-.18l.91-.02v.4c.31-.22.67-.42,1.06-.42s.66.29.66.81v1.52c0,.14.08.2.43.21v.18h-1.29v-.18c.3,0,.38-.06.38-.21v-1.31c0-.52-.21-.66-.56-.66-.26,0-.5.12-.66.24v1.73c0,.14.08.2.37.21v.18h-1.29v-.18Z"/>
    <path class="cls-2" d="M36.28,43.9c.34,0,.43-.06.43-.21v-1.82c0-.18-.08-.28-.42-.29v-.18l.91-.02v2.31c0,.14.08.2.43.21v.18h-1.35v-.18ZM36.6,40.37c0-.21.13-.36.33-.36s.33.14.33.35-.13.35-.33.35-.33-.13-.33-.34Z"/>
    <path class="cls-2" d="M38.43,43.39v-1.73h-.5v-.16l.51-.11v-.75l.48-.21v.97h.85v.25h-.85v1.68c0,.32.12.47.36.47.16,0,.29-.12.43-.32l.13.09c-.22.39-.42.54-.79.54s-.63-.24-.63-.73Z"/>
    <path class="cls-2" d="M40.33,43.9c.34,0,.43-.06.43-.21v-1.82c0-.18-.08-.28-.42-.29v-.18l.91-.02v2.31c0,.14.08.2.43.21v.18h-1.35v-.18ZM40.66,40.37c0-.21.13-.36.33-.36s.33.14.33.35-.13.35-.33.35-.33-.13-.33-.34Z"/>
    <path class="cls-2" d="M42.1,42.76c0-.8.49-1.42,1.25-1.42s1.12.67,1.07,1.31h-1.8v.04h0c0,.66.32,1.12.9,1.12.33,0,.59-.21.83-.5l.12.11c-.22.36-.52.7-1.11.7-.82,0-1.25-.59-1.25-1.37ZM42.64,42.48l1.26-.03c.06-.5-.16-.93-.58-.93-.36,0-.63.28-.68.96Z"/>
    <path class="cls-2" d="M45.12,43.23h.17c.26.43.54.71.88.71.32,0,.48-.22.48-.45,0-.28-.16-.39-.7-.55-.59-.18-.8-.38-.8-.75,0-.51.36-.86.94-.86.19,0,.43.07.56.15l.11-.15h.13v.8h-.17c-.19-.36-.41-.62-.7-.62s-.47.18-.47.44c0,.24.2.36.67.5.56.16.8.36.8.76,0,.49-.31.9-.91.9-.22,0-.52-.09-.68-.19l-.18.19h-.13v-.9Z"/>
    <path class="cls-2" d="M48.62,43.5c0-.23.11-.47.36-.61.45-.25,1.14-.34,1.23-.41v-.17c0-.59-.16-.77-.54-.77-.19,0-.3.05-.4.15.05.1.07.19.07.28,0,.18-.11.32-.31.32-.19,0-.29-.15-.29-.32,0-.34.45-.61,1.01-.61.61,0,.96.28.96.84v1.34c0,.29.06.36.45.31l.02.14c-.21.08-.36.11-.54.11-.31,0-.36-.13-.4-.45h-.02c-.23.26-.53.46-.88.46-.49,0-.71-.3-.71-.62ZM50.21,43.44v-.77c-.84.18-1.04.3-1.04.69,0,.25.13.44.44.44.23,0,.47-.18.6-.36Z"/>
    <path class="cls-2" d="M51.66,43.9c.34,0,.43-.06.43-.21v-1.82c0-.18-.09-.28-.43-.29v-.18l.91-.02v.4c.31-.22.67-.42,1.06-.42s.66.29.66.81v1.52c0,.14.08.2.43.21v.18h-1.29v-.18c.3,0,.38-.06.38-.21v-1.31c0-.52-.21-.66-.56-.66-.26,0-.5.12-.66.24v1.73c0,.14.08.2.37.21v.18h-1.29v-.18Z"/>
    <path class="cls-2" d="M55.13,42.78c0-.81.52-1.44,1.3-1.44.3,0,.47.06.63.16v-1.01c0-.18-.11-.28-.45-.29v-.18l.94-.02v3.7c0,.15.09.2.43.21v.18l-.91.02v-.31c-.2.21-.45.33-.8.33-.72,0-1.15-.59-1.15-1.35ZM57.07,43.6v-1.73c-.15-.23-.32-.34-.6-.34-.42,0-.79.43-.79,1.22,0,.63.3,1.1.83,1.1.21,0,.39-.11.56-.25Z"/>
    <path class="cls-2" d="M10.24,48.58c0-1.18.87-2.07,1.97-2.07.4,0,.74.14.96.27l.16-.25h.18v1.27h-.18c-.25-.66-.61-1.07-1.18-1.07-.67,0-1.28.64-1.28,1.83s.73,1.69,1.39,1.69,1.03-.4,1.25-.9l.19.09c-.24.54-.74,1.11-1.6,1.11-1.1,0-1.87-.79-1.87-1.97Z"/>
    <path class="cls-2" d="M14.32,49.13c0-.81.51-1.4,1.31-1.4s1.31.56,1.31,1.38-.51,1.41-1.31,1.41c-.84,0-1.31-.56-1.31-1.38ZM16.39,49.11c0-.82-.32-1.21-.79-1.21s-.74.39-.74,1.21.32,1.21.79,1.21.74-.39.74-1.21Z"/>
    <path class="cls-2" d="M19.18,50.28c.29,0,.34-.06.34-.21v-1.3c0-.52-.21-.67-.56-.67-.26,0-.44.12-.6.24v1.73c0,.14.04.2.33.21v.18h-1.25v-.18c.34,0,.43-.06.43-.21v-1.82c0-.18-.09-.28-.43-.29v-.18l.91-.02v.4c.31-.22.62-.42,1.01-.42.3,0,.53.18.62.5.35-.3.69-.5,1.07-.5.4,0,.64.29.64.81v1.52c0,.14.09.2.43.21v.18h-1.26v-.18c.29,0,.34-.06.34-.21v-1.3c0-.52-.19-.67-.54-.67-.2,0-.4.11-.64.3,0,.08.01.13.01.19v1.48c0,.14.05.2.39.21v.18h-1.22v-.18Z"/>
    <path class="cls-2" d="M24.4,50.28c.29,0,.34-.06.34-.21v-1.3c0-.52-.21-.67-.56-.67-.26,0-.44.12-.6.24v1.73c0,.14.04.2.33.21v.18h-1.25v-.18c.34,0,.43-.06.43-.21v-1.82c0-.18-.09-.28-.43-.29v-.18l.91-.02v.4c.31-.22.62-.42,1.01-.42.3,0,.53.18.62.5.35-.3.69-.5,1.07-.5.4,0,.64.29.64.81v1.52c0,.14.09.2.43.21v.18h-1.26v-.18c.29,0,.34-.06.34-.21v-1.3c0-.52-.19-.67-.54-.67-.2,0-.4.11-.64.3,0,.08.01.13.01.19v1.48c0,.14.05.2.39.21v.18h-1.22v-.18Z"/>
    <path class="cls-2" d="M28.02,49.69v-1.49c0-.18-.09-.22-.43-.23v-.18l.93-.03v1.73c0,.52.21.66.59.66.26,0,.44-.09.62-.2v-1.75c0-.18-.11-.22-.43-.23v-.18l.93-.03v2.32c0,.15.09.2.43.21v.18h-.91v-.34c-.29.21-.63.39-1.01.39-.42,0-.7-.29-.7-.81Z"/>
    <path class="cls-2" d="M31.18,50.28c.34,0,.43-.06.43-.21v-1.82c0-.18-.09-.28-.43-.29v-.18l.91-.02v.4c.31-.22.67-.42,1.06-.42s.66.29.66.81v1.52c0,.14.08.2.43.21v.18h-1.29v-.18c.3,0,.38-.06.38-.21v-1.31c0-.52-.21-.66-.56-.66-.26,0-.5.12-.66.24v1.73c0,.14.08.2.37.21v.18h-1.29v-.18Z"/>
    <path class="cls-2" d="M34.8,50.28c.34,0,.43-.06.43-.21v-1.82c0-.18-.08-.28-.42-.29v-.18l.91-.02v2.31c0,.14.08.2.43.21v.18h-1.35v-.18ZM35.13,46.75c0-.21.13-.36.33-.36s.33.14.33.35-.13.35-.33.35-.33-.13-.33-.34Z"/>
    <path class="cls-2" d="M36.57,49.14c0-.81.56-1.42,1.29-1.42.62,0,.93.34.93.63,0,.19-.12.33-.3.33-.2,0-.31-.12-.31-.3,0-.16.11-.27.19-.32-.09-.08-.27-.17-.5-.17-.44,0-.79.36-.79,1.11,0,.7.35,1.16.91,1.16.3,0,.56-.17.76-.4l.12.11c-.25.36-.54.62-1.07.62-.77,0-1.24-.59-1.24-1.37Z"/>
    <path class="cls-2" d="M39.45,49.88c0-.23.11-.47.36-.61.45-.25,1.14-.34,1.23-.41v-.17c0-.59-.16-.77-.54-.77-.19,0-.3.05-.4.15.05.1.07.19.07.28,0,.18-.11.32-.31.32-.19,0-.29-.15-.29-.32,0-.34.45-.61,1.01-.61.61,0,.96.28.96.84v1.34c0,.29.06.36.45.31l.02.14c-.21.08-.36.11-.54.11-.31,0-.36-.13-.4-.45h-.02c-.23.26-.53.46-.88.46-.49,0-.71-.3-.71-.62ZM41.04,49.82v-.77c-.84.18-1.04.3-1.04.69,0,.25.13.44.44.44.23,0,.47-.18.6-.36Z"/>
    <path class="cls-2" d="M42.66,49.78v-1.73h-.5v-.16l.51-.11v-.75l.48-.21v.97h.85v.25h-.85v1.68c0,.32.12.47.36.47.16,0,.29-.12.43-.32l.13.09c-.22.39-.42.54-.79.54s-.63-.24-.63-.73Z"/>
    <path class="cls-2" d="M44.57,50.28c.34,0,.43-.06.43-.21v-1.82c0-.18-.08-.28-.42-.29v-.18l.91-.02v2.31c0,.14.08.2.43.21v.18h-1.35v-.18ZM44.9,46.75c0-.21.13-.36.33-.36s.33.14.33.35-.13.35-.33.35-.33-.13-.33-.34Z"/>
    <path class="cls-2" d="M46.34,49.13c0-.81.51-1.4,1.31-1.4s1.31.56,1.31,1.38-.51,1.41-1.31,1.41c-.84,0-1.31-.56-1.31-1.38ZM48.42,49.11c0-.82-.32-1.21-.79-1.21s-.74.39-.74,1.21.32,1.21.79,1.21.74-.39.74-1.21Z"/>
    <path class="cls-2" d="M49.46,50.28c.34,0,.43-.06.43-.21v-1.82c0-.18-.09-.28-.43-.29v-.18l.91-.02v.4c.31-.22.67-.42,1.06-.42s.66.29.66.81v1.52c0,.14.08.2.43.21v.18h-1.29v-.18c.3,0,.38-.06.38-.21v-1.31c0-.52-.21-.66-.56-.66-.26,0-.5.12-.66.24v1.73c0,.14.08.2.37.21v.18h-1.29v-.18Z"/>
    <path class="cls-2" d="M56.12,49.01h-1.31l-.22.57c-.22.55-.19.62.32.7v.17h-1.27v-.17c.4-.08.53-.31.73-.81l1.18-2.93h.26l1.18,3.26c.11.29.22.42.66.48v.17h-1.73v-.17c.51-.03.6-.14.49-.45l-.29-.83ZM56.04,48.8l-.53-1.55h-.02l-.6,1.55h1.15Z"/>
    <path class="cls-2" d="M58.08,50.28c.34,0,.43-.06.43-.21v-1.82c0-.18-.09-.28-.43-.29v-.18l.91-.02v.46c.21-.26.47-.47.78-.47s.43.21.43.4c0,.19-.12.33-.3.33s-.32-.11-.32-.3c0-.03,0-.06.01-.1-.26-.01-.47.17-.59.34v1.66c0,.14.11.2.49.21v.18h-1.41v-.18Z"/>
    <path class="cls-2" d="M61.15,49.78v-1.73h-.5v-.16l.51-.11v-.75l.48-.21v.97h.85v.25h-.85v1.68c0,.32.12.47.36.47.16,0,.29-.12.43-.32l.13.09c-.22.39-.42.54-.79.54s-.63-.24-.63-.73Z"/>
    <path class="cls-2" d="M63.13,49.61h.17c.26.43.54.71.88.71.32,0,.48-.22.48-.45,0-.28-.16-.39-.7-.55-.59-.18-.8-.38-.8-.75,0-.51.36-.86.94-.86.19,0,.43.07.56.15l.11-.15h.13v.8h-.17c-.19-.36-.41-.62-.7-.62s-.47.18-.47.44c0,.24.2.36.67.5.56.16.8.36.8.76,0,.49-.31.9-.91.9-.22,0-.52-.09-.68-.19l-.18.19h-.13v-.9Z"/>
  </g>
  <line class="cls-3" x1="15.44" y1="34.85" x2="59.98" y2="34.85"/>
</svg>